<svg width="30" height="30" viewBox="0 0 30 30" fill="none" xmlns="http://www.w3.org/2000/svg">
<path d="M25 18.25V5.25H5V25.25H24" stroke="#F3BC4E" stroke-width="1.5"/>
<path d="M25 20.25L26.7321 18H23.2679L25 20.25Z" fill="#F3BC4E"/>
<path d="M11.1872 9.02072H16.0539C16.9489 9.02072 17.703 9.1616 18.3163 9.44337C18.9337 9.72099 19.3957 10.1105 19.7023 10.6119C20.0131 11.1091 20.1685 11.6809 20.1685 12.3273C20.1685 12.8246 20.0732 13.2576 19.8826 13.6264C19.6961 13.9952 19.4351 14.2977 19.0994 14.5338C18.7638 14.7659 18.3805 14.9316 17.9496 15.0311V15.1554C18.4137 15.1802 18.855 15.3211 19.2735 15.578C19.692 15.8349 20.0276 16.1975 20.2804 16.6657C20.5373 17.1298 20.6657 17.6685 20.6657 18.2818C20.6657 18.9572 20.5041 19.5559 20.1809 20.078C19.8619 20.6001 19.375 21.0104 18.7203 21.3087C18.0698 21.6029 17.2721 21.75 16.3273 21.75H11.1872V9.02072ZM15.9669 19.8356C16.5097 19.8356 16.9572 19.7631 17.3094 19.6181C17.6657 19.4689 17.9268 19.268 18.0925 19.0152C18.2624 18.7583 18.3474 18.4558 18.3474 18.1077C18.3474 17.7265 18.2521 17.3847 18.0615 17.0822C17.875 16.7756 17.6057 16.5352 17.2535 16.3612C16.9012 16.183 16.4952 16.0939 16.0352 16.0939H13.4682V19.8356H15.9669ZM15.768 14.4406C16.1699 14.4406 16.5304 14.366 16.8494 14.2169C17.1727 14.0635 17.4254 13.8501 17.6077 13.5767C17.7942 13.3032 17.8874 12.982 17.8874 12.6133C17.8874 12.2818 17.8087 11.9896 17.6512 11.7369C17.4938 11.48 17.2597 11.279 16.9489 11.134C16.6381 10.989 16.261 10.9164 15.8177 10.9164H13.4682V14.4406H15.768Z" fill="#F3BC4E"/>
</svg>
