<svg width="30" height="30" viewBox="0 0 30 30" fill="none" xmlns="http://www.w3.org/2000/svg">
<path d="M26.0568 12.74L21.5128 12.0399L18.7436 7.51608C18.5982 7.2793 18.3942 7.08404 18.1512 6.9492C17.9083 6.81435 17.6347 6.74449 17.3569 6.74637L5.75118 6.83884C5.41631 6.84167 5.09065 6.94874 4.81943 7.14516C4.54821 7.34159 4.34491 7.61761 4.23778 7.93489L2.91895 11.8457V20.8372H5.6878C5.90305 21.5368 6.33694 22.1491 6.92578 22.584C7.51462 23.0189 8.22738 23.2536 8.95943 23.2536C9.69147 23.2536 10.4042 23.0189 10.9931 22.584C11.5819 22.1491 12.0158 21.5368 12.2311 20.8372H17.3661C17.5813 21.5368 18.0152 22.1491 18.6041 22.584C19.1929 23.0189 19.9057 23.2536 20.6377 23.2536C21.3697 23.2536 22.0825 23.0189 22.6713 22.584C23.2602 22.1491 23.6941 21.5368 23.9093 20.8372H27.0809V13.934C27.0822 13.6451 26.9794 13.3654 26.7914 13.1462C26.6033 12.9269 26.3425 12.7827 26.0568 12.74ZM13.3891 8.38873L17.3697 8.35702L19.5896 11.9837L13.3891 11.9815V8.38873ZM5.76406 8.44954L11.7783 8.40162V11.981L4.57409 11.9784L5.76406 8.44954ZM8.95943 21.6426C8.60102 21.6426 8.25066 21.5363 7.95266 21.3372C7.65465 21.138 7.42238 20.855 7.28522 20.5239C7.14807 20.1928 7.11218 19.8284 7.1821 19.4769C7.25203 19.1254 7.42462 18.8025 7.67805 18.549C7.93148 18.2956 8.25438 18.123 8.6059 18.0531C8.95742 17.9832 9.32178 18.0191 9.65291 18.1562C9.98403 18.2934 10.2671 18.5256 10.4662 18.8236C10.6653 19.1216 10.7716 19.472 10.7716 19.8304C10.771 20.3109 10.5799 20.7715 10.2402 21.1112C9.90049 21.4509 9.43988 21.642 8.95943 21.6426ZM20.6377 21.6426C20.2793 21.6426 19.9289 21.5363 19.6309 21.3372C19.3329 21.138 19.1007 20.855 18.9635 20.5239C18.8263 20.1928 18.7905 19.8284 18.8604 19.4769C18.9303 19.1254 19.1029 18.8025 19.3563 18.549C19.6098 18.2956 19.9326 18.123 20.2842 18.0531C20.6357 17.9832 21 18.0191 21.3312 18.1562C21.6623 18.2934 21.9453 18.5256 22.1444 18.8236C22.3436 19.1216 22.4498 19.472 22.4498 19.8304C22.4493 20.3109 22.2582 20.7715 21.9185 21.1112C21.5788 21.4509 21.1181 21.642 20.6377 21.6426ZM25.4701 19.2264H24.0062C23.8647 18.4359 23.4497 17.7205 22.8339 17.2051C22.2181 16.6898 21.4407 16.4074 20.6377 16.4074C19.8347 16.4074 19.0573 16.6898 18.4415 17.2051C17.8257 17.7205 17.4107 18.4359 17.2692 19.2264H12.3279C12.1864 18.4359 11.7714 17.7205 11.1556 17.2051C10.5398 16.6898 9.76242 16.4074 8.95943 16.4074C8.15644 16.4074 7.37903 16.6898 6.76323 17.2051C6.14743 17.7205 5.73246 18.4359 5.59095 19.2264H4.52974V13.5899L21.1675 13.6165L25.4701 14.2794V19.2264Z" fill="#F3BC4E"/>
</svg>
