<svg width="30" height="30" viewBox="0 0 30 30" fill="none" xmlns="http://www.w3.org/2000/svg">
<path fill-rule="evenodd" clip-rule="evenodd" d="M16.6105 6.9248H6.81413C6.28845 6.9248 5.8623 7.35095 5.8623 7.87663V10.2248H17.5623V7.87663C17.5623 7.35095 17.1362 6.9248 16.6105 6.9248ZM6.81413 5.4248C5.46002 5.4248 4.3623 6.52252 4.3623 7.87663V10.2248V11.7248H4.66235V23.8254V24.5754H5.41235H18.0124H18.7624V23.8254V18.6252H19.4527C19.9412 18.6252 20.3372 19.0212 20.3372 19.5097V21.9406C20.3372 23.2576 21.4048 24.3252 22.7218 24.3252H23.2527C24.5696 24.3252 25.6372 23.2576 25.6372 21.9406V15.5002V15.1895L25.4175 14.9699L23.0425 12.5949L21.9819 13.6555L22.6054 14.2791C21.9867 14.5924 21.5625 15.2343 21.5625 15.9753C21.5625 17.0246 22.4132 17.8753 23.4625 17.8753C23.7001 17.8753 23.9275 17.8316 24.1372 17.752V21.9406C24.1372 22.4292 23.7412 22.8252 23.2527 22.8252H22.7218C22.2332 22.8252 21.8372 22.4292 21.8372 21.9406V19.5097C21.8372 18.1928 20.7696 17.1252 19.4527 17.1252H18.7624V11.7248H19.0623V10.2248V7.87663C19.0623 6.52252 17.9646 5.4248 16.6105 5.4248H6.81413ZM6.16235 23.0754V11.7248H17.2624V23.0754H6.16235ZM23.8625 15.9753C23.8625 16.1962 23.6834 16.3753 23.4625 16.3753C23.2416 16.3753 23.0625 16.1962 23.0625 15.9753C23.0625 15.7543 23.2416 15.5753 23.4625 15.5753C23.6834 15.5753 23.8625 15.7543 23.8625 15.9753Z" fill="#F3BC4E"/>
</svg>
