<svg width="14" height="15" viewBox="0 0 14 15" fill="none" xmlns="http://www.w3.org/2000/svg">
<path d="M6.58163 2.51441C6.71608 2.24203 6.7833 2.10584 6.87456 2.06233C6.95397 2.02447 7.04622 2.02447 7.12562 2.06233C7.21688 2.10584 7.2841 2.24203 7.41855 2.51441L8.69412 5.09856C8.73381 5.17897 8.75366 5.21918 8.78266 5.2504C8.80834 5.27804 8.83914 5.30043 8.87335 5.31634C8.91199 5.33431 8.95635 5.34079 9.04509 5.35376L11.8983 5.77081C12.1988 5.81472 12.349 5.83668 12.4185 5.91007C12.479 5.97392 12.5075 6.06165 12.496 6.14885C12.4827 6.24907 12.374 6.355 12.1564 6.56687L10.0926 8.57706C10.0283 8.63972 9.99609 8.67105 9.97533 8.70833C9.95695 8.74134 9.94516 8.7776 9.94061 8.81511C9.93548 8.85747 9.94307 8.90173 9.95825 8.99024L10.4452 11.8295C10.4966 12.129 10.5223 12.2787 10.474 12.3676C10.432 12.4449 10.3574 12.4991 10.2709 12.5152C10.1714 12.5336 10.037 12.4629 9.76806 12.3215L7.2173 10.98C7.13783 10.9383 7.09809 10.9174 7.05622 10.9091C7.01915 10.9019 6.98103 10.9019 6.94396 10.9091C6.90209 10.9174 6.86236 10.9383 6.78288 10.98L4.23212 12.3215C3.9632 12.4629 3.82874 12.5336 3.72931 12.5152C3.64281 12.4991 3.56817 12.4449 3.52618 12.3676C3.47791 12.2787 3.5036 12.129 3.55496 11.8295L4.04193 8.99024C4.05711 8.90173 4.0647 8.85747 4.05957 8.81511C4.05502 8.7776 4.04323 8.74134 4.02485 8.70833C4.00409 8.67105 3.97193 8.63972 3.90759 8.57706L1.84374 6.56687C1.62622 6.355 1.51746 6.24907 1.50422 6.14885C1.49271 6.06165 1.52115 5.97392 1.58164 5.91007C1.65117 5.83668 1.8014 5.81472 2.10186 5.77081L4.9551 5.35376C5.04383 5.34079 5.08819 5.33431 5.12683 5.31634C5.16104 5.30043 5.19184 5.27804 5.21752 5.2504C5.24653 5.21918 5.26637 5.17897 5.30607 5.09856L6.58163 2.51441Z" fill="#E4813A" stroke="#E4813A" stroke-width="1.4" stroke-linecap="round" stroke-linejoin="round"/>
</svg>
