<svg width="36" height="37" viewBox="0 0 36 37" fill="none" xmlns="http://www.w3.org/2000/svg">
<g filter="url(#filter0_d_272_1178)">
<path fill-rule="evenodd" clip-rule="evenodd" d="M18 28.125C25.2487 28.125 31.125 22.2487 31.125 15C31.125 7.75126 25.2487 1.875 18 1.875C10.7513 1.875 4.875 7.75126 4.875 15C4.875 22.2487 10.7513 28.125 18 28.125ZM24.6016 11.2652C24.9551 10.8409 24.8978 10.2103 24.4735 9.85678C24.0492 9.50321 23.4187 9.56054 23.0651 9.98482L17.1755 17.0524C16.8288 17.4684 16.6339 17.6988 16.4782 17.8403L16.4723 17.8457L16.4659 17.8409C16.2981 17.714 16.0831 17.5022 15.7002 17.1193L12.8738 14.2929C12.4832 13.9024 11.8501 13.9024 11.4596 14.2929C11.069 14.6834 11.069 15.3166 11.4596 15.7071L14.2859 18.5335L14.3268 18.5743L14.3268 18.5744C14.6533 18.901 14.9674 19.2152 15.2596 19.4361C15.587 19.6837 16.0157 19.9165 16.5651 19.8915C17.1145 19.8666 17.5204 19.596 17.824 19.3198C18.095 19.0733 18.3794 18.7319 18.675 18.3771L18.7119 18.3327L24.6016 11.2652Z" fill="#F3BC4E"/>
</g>
<defs>
<filter id="filter0_d_272_1178" x="-1" y="0" width="38" height="38" filterUnits="userSpaceOnUse" color-interpolation-filters="sRGB">
<feFlood flood-opacity="0" result="BackgroundImageFix"/>
<feColorMatrix in="SourceAlpha" type="matrix" values="0 0 0 0 0 0 0 0 0 0 0 0 0 0 0 0 0 0 127 0" result="hardAlpha"/>
<feOffset dy="4"/>
<feGaussianBlur stdDeviation="2"/>
<feComposite in2="hardAlpha" operator="out"/>
<feColorMatrix type="matrix" values="0 0 0 0 0.298039 0 0 0 0 0.298039 0 0 0 0 0.298039 0 0 0 0.06 0"/>
<feBlend mode="normal" in2="BackgroundImageFix" result="effect1_dropShadow_272_1178"/>
<feBlend mode="normal" in="SourceGraphic" in2="effect1_dropShadow_272_1178" result="shape"/>
</filter>
</defs>
</svg>
