<svg width="106" height="105" viewBox="0 0 106 105" fill="none" xmlns="http://www.w3.org/2000/svg">
<ellipse cx="53.0848" cy="52.9074" rx="52.1127" ry="52.032" transform="rotate(180 53.0848 52.9074)" fill="#B5BFCB"/>
<ellipse cx="53.0848" cy="52.9074" rx="52.1127" ry="52.032" transform="rotate(180 53.0848 52.9074)" fill="url(#paint0_linear_467_1979)"/>
<path d="M21.1331 43.1263C21.1691 41.2509 21.7552 39.8355 22.8912 38.8798C24.0091 37.9602 25.2984 37.5003 26.759 37.5003C28.2736 37.5003 29.59 37.9602 30.7079 38.8798C31.8079 39.8355 32.3759 41.2509 32.4119 43.1263C32.3759 44.9475 31.8079 46.3359 30.7079 47.2916C29.59 48.2833 28.2736 48.7792 26.759 48.7792C25.2984 48.7792 24.0091 48.2833 22.8912 47.2916C21.7552 46.3359 21.1691 44.9475 21.1331 43.1263ZM14.7498 60.0851C14.7859 63.6374 15.985 66.4774 18.3472 68.6051C20.6011 70.787 23.4051 71.8959 26.759 71.932C30.1309 71.8959 32.9799 70.787 35.306 68.6051C37.5961 66.4774 38.7591 63.6374 38.7952 60.0851C38.7591 56.2804 37.2084 53.3232 34.143 51.2135C35.315 50.1857 36.2707 49.0046 37.01 47.6703C37.7133 46.4261 38.0649 44.9475 38.0649 43.2344C38.0288 39.9527 36.9559 37.2389 34.8462 35.0931C32.7545 32.9654 30.0588 31.8834 26.759 31.8474C23.5133 31.8834 20.8626 32.9654 18.807 35.0931C16.6251 37.2389 15.5162 39.9527 15.4801 43.2344C15.4801 44.9475 15.8678 46.4261 16.6432 47.6703C17.3103 49.0046 18.2299 50.1857 19.402 51.2135C16.3366 53.3232 14.7859 56.2804 14.7498 60.0851ZM20.4028 60.031C20.4388 58.1918 21.088 56.6952 22.3502 55.5411C23.5583 54.4051 25.0279 53.8191 26.759 53.783C28.5441 53.8191 30.0408 54.4051 31.2489 55.5411C32.475 56.6952 33.1062 58.1918 33.1422 60.031C33.1062 61.8342 32.475 63.3128 31.2489 64.4668C30.0408 65.675 28.5441 66.279 26.759 66.279C25.0279 66.279 23.5583 65.675 22.3502 64.4668C21.088 63.3128 20.4388 61.8342 20.4028 60.031ZM39.7433 65.7381H56.1883V71.6074H61.8413V65.7381H64.9788V60.4097H61.8413V49.0767H56.1883V60.4097H45.8832L59.2176 32.172H52.9155L39.7433 60.4097V65.7381ZM83.4809 60.2474C83.3727 64.2324 81.5244 66.243 77.9361 66.279C74.3298 66.243 72.4905 64.2324 72.4184 60.2474V43.532C72.4905 39.583 74.3298 37.5725 77.9361 37.5003C81.5244 37.5725 83.3727 39.583 83.4809 43.532V60.2474ZM66.7654 60.572C66.8015 64.1964 67.9645 66.9913 70.2546 68.9568C72.4004 70.9042 74.9609 71.8959 77.9361 71.932C81.0015 71.8959 83.6071 70.9042 85.7529 68.9568C87.9347 66.9913 89.0617 64.1964 89.1338 60.572V43.1803C89.0617 39.5379 87.9347 36.734 85.7529 34.7685C83.6071 32.8211 81.0015 31.8474 77.9361 31.8474C74.9609 31.8474 72.4004 32.8211 70.2546 34.7685C67.9645 36.734 66.8015 39.5379 66.7654 43.1803V60.572Z" fill="#FAFAFA"/>
<defs>
<linearGradient id="paint0_linear_467_1979" x1="8.31017" y1="1.31112" x2="105.222" y2="105.422" gradientUnits="userSpaceOnUse">
<stop stop-opacity="0.3"/>
<stop offset="1" stop-opacity="0"/>
</linearGradient>
</defs>
</svg>
