<svg width="83" height="104" viewBox="0 0 83 104" fill="none" xmlns="http://www.w3.org/2000/svg">
<path d="M56.5889 69.749H75.4525" stroke="#B5BFCB" stroke-width="2.57576" stroke-linecap="round"/>
<path d="M8.37695 9.19336H49.0386" stroke="#F4BB53" stroke-width="2.57576" stroke-linecap="round"/>
<path d="M8.37695 17.9604H49.0386" stroke="#FAFAFA" stroke-width="2.57576" stroke-linecap="round"/>
<path d="M8.37695 17.9604H49.0386" stroke="#F4BB53" stroke-opacity="0.7" stroke-width="2.57576" stroke-linecap="round"/>
<path d="M56.5889 78.1064H75.4525" stroke="#B5BFCB" stroke-width="2.57576" stroke-linecap="round"/>
<path d="M56.5889 86.4585H75.4525" stroke="#B5BFCB" stroke-width="2.57576" stroke-linecap="round"/>
<path d="M56.5889 94.8066H75.4525" stroke="#FAFAFA" stroke-width="2.57576" stroke-linecap="round"/>
<path d="M56.5889 94.8066H75.4525" stroke="#F4BB53" stroke-opacity="0.7" stroke-width="2.57576" stroke-linecap="round"/>
<path d="M13.6562 34.3199C13.6562 33.4901 14.3289 32.8174 15.1588 32.8174H20.487C21.3169 32.8174 21.9896 33.4901 21.9896 34.3199V57.9877C21.9896 58.8175 21.3169 59.4902 20.487 59.4902H15.1588C14.3289 59.4902 13.6562 58.8175 13.6562 57.9877V34.3199Z" stroke="#FAFAFA" stroke-width="2.14647"/>
<path d="M13.6562 34.3199C13.6562 33.4901 14.3289 32.8174 15.1588 32.8174H20.487C21.3169 32.8174 21.9896 33.4901 21.9896 34.3199V57.9877C21.9896 58.8175 21.3169 59.4902 20.487 59.4902H15.1588C14.3289 59.4902 13.6562 58.8175 13.6562 57.9877V34.3199Z" stroke="#F4BB53" stroke-opacity="0.7" stroke-width="2.14647"/>
<rect x="29.1543" y="42.4219" width="8.33333" height="17.0664" rx="1.50253" stroke="#B5BFCB" stroke-width="2.14647"/>
<rect x="45.5039" y="32.3945" width="8.33333" height="27.0905" rx="1.50253" stroke="#B5BFCB" stroke-width="2.14647"/>
<rect x="61.0166" y="37.4082" width="8.33333" height="22.0784" rx="1.50253" stroke="#B5BFCB" stroke-width="2.14647"/>
<path fill-rule="evenodd" clip-rule="evenodd" d="M8.38313 82.2791C8.38313 90.3527 14.9519 96.8976 23.0548 96.8976C31.1578 96.8976 37.7266 90.3527 37.7266 82.2791L23.0548 82.2791L23.0548 67.6606C14.9519 67.6606 8.38313 74.2056 8.38313 82.2791Z" fill="#F4BB53"/>
<path fill-rule="evenodd" clip-rule="evenodd" d="M39.8223 80.1951C39.8223 72.1216 33.2535 65.5767 25.1506 65.5767L25.1506 80.1951L39.8223 80.1951Z" fill="#FAFAFA"/>
<path fill-rule="evenodd" clip-rule="evenodd" d="M39.8223 80.1951C39.8223 72.1216 33.2535 65.5767 25.1506 65.5767L25.1506 80.1951L39.8223 80.1951Z" fill="#F4BB53" fill-opacity="0.7"/>
<ellipse cx="50.7227" cy="69.7586" rx="1.67677" ry="1.67068" fill="#CECECE"/>
<ellipse cx="50.7227" cy="78.1062" rx="1.67677" ry="1.67068" fill="#CECECE"/>
<ellipse cx="50.7227" cy="86.4554" rx="1.67677" ry="1.67068" fill="#CECECE"/>
<ellipse cx="50.7227" cy="94.8157" rx="1.67677" ry="1.67068" fill="#CECECE"/>
<rect x="1.28788" y="1.28788" width="80.4242" height="101.424" rx="5.58081" stroke="#B5BFCB" stroke-width="2.57576"/>
<path d="M6.70312 59.312H76.289" stroke="#CECECE" stroke-width="2.57576" stroke-linecap="round"/>
</svg>
