<svg width="57" height="43" viewBox="0 0 57 43" fill="none" xmlns="http://www.w3.org/2000/svg">
<path d="M36.5493 13.9082L35.8646 13.1794L36.5493 13.9082ZM36.7885 6.52734L35.9984 7.14034L36.7885 6.52734ZM21.2115 6.52735L20.4215 5.91435L21.2115 6.52735ZM21.4507 13.9082L20.766 14.6371L21.4507 13.9082ZM28.4033 20.4395L29.088 19.7106L28.4033 20.4395ZM28.9037 20.8046L28.7111 21.7859L28.9037 20.8046ZM29.0963 20.8046L29.2889 21.7859L29.0963 20.8046ZM29.088 19.7106L22.1353 13.1794L20.766 14.6371L27.7186 21.1683L29.088 19.7106ZM21.6923 7.53907L22.0016 7.14034L20.4215 5.91435L20.1121 6.31307L21.6923 7.53907ZM35.9984 7.14034L36.3077 7.53906L37.8879 6.31307L37.5785 5.91434L35.9984 7.14034ZM35.8646 13.1794L28.912 19.7106L30.2814 21.1683L37.234 14.6371L35.8646 13.1794ZM36.3077 7.53906C37.6368 9.25207 37.4449 11.6949 35.8646 13.1794L37.234 14.6371C39.5661 12.4463 39.8493 8.84113 37.8879 6.31307L36.3077 7.53906ZM30.3891 7.74438C31.4515 5.51842 34.4864 5.1916 35.9984 7.14034L37.5785 5.91434C35.1541 2.78956 30.2877 3.31361 28.5842 6.88292L30.3891 7.74438ZM27.6109 7.74438C28.1685 8.91272 29.8315 8.91272 30.3891 7.74438L28.5842 6.88292C28.7511 6.5332 29.2489 6.5332 29.4158 6.88292L27.6109 7.74438ZM22.0016 7.14034C23.5136 5.19161 26.5485 5.51842 27.6109 7.74438L29.4158 6.88292C27.7123 3.31361 22.8459 2.78956 20.4215 5.91435L22.0016 7.14034ZM22.1353 13.1794C20.5551 11.6949 20.3632 9.25207 21.6923 7.53907L20.1121 6.31307C18.1507 8.84113 18.4339 12.4463 20.766 14.6371L22.1353 13.1794ZM27.7186 21.1683C27.8238 21.2671 27.9548 21.3917 28.0802 21.4883C28.219 21.5952 28.4274 21.7302 28.7111 21.7859L29.0963 19.8233C29.1642 19.8367 29.2193 19.8588 29.258 19.8787C29.2928 19.8967 29.3087 19.9101 29.3006 19.9038C29.2919 19.8971 29.2723 19.881 29.2335 19.8459C29.1948 19.8109 29.1498 19.7687 29.088 19.7106L27.7186 21.1683ZM28.912 19.7106C28.8502 19.7687 28.8052 19.8109 28.7665 19.8459C28.7277 19.881 28.7081 19.8971 28.6994 19.9038C28.6913 19.9101 28.7072 19.8967 28.742 19.8787C28.7807 19.8588 28.8358 19.8367 28.9037 19.8233L29.2889 21.7859C29.5726 21.7302 29.781 21.5952 29.9198 21.4883C30.0452 21.3917 30.1762 21.2671 30.2814 21.1683L28.912 19.7106ZM28.7111 21.7859C28.9019 21.8233 29.0981 21.8233 29.2889 21.7859L28.9037 19.8233C28.9673 19.8109 29.0327 19.8109 29.0963 19.8233L28.7111 21.7859Z" fill="#9E9E9E"/>
<path d="M25.2245 30.156V31.116C25.2245 32.148 24.7325 33.564 23.5085 34.224L24.0365 34.944C25.4405 34.188 25.9565 32.472 25.9565 31.116V30.156H25.2245ZM25.4645 30.156V31.116C25.4645 32.328 25.8245 34.212 27.2405 35.052L27.6965 34.308C26.4965 33.54 26.1725 32.028 26.1725 31.116V30.156H25.4645ZM28.3205 30.156V31.116C28.3205 32.1 27.9965 33.564 26.7965 34.308L27.2405 35.052C28.6685 34.236 29.0285 32.4 29.0285 31.116V30.156H28.3205ZM28.5365 30.156V31.116C28.5365 32.508 29.0525 34.2 30.4685 34.944L30.9965 34.224C29.7605 33.576 29.2805 32.184 29.2805 31.116V30.156H28.5365ZM23.8685 29.844V30.648H26.9885V29.844H23.8685ZM27.5045 29.844V30.648H30.5645V29.844H27.5045ZM31.5845 29.076V35.448H32.5925V29.076H31.5845ZM25.4045 36.036V39.792H32.5925V36.036H25.4045ZM31.6085 36.84V38.976H26.3765V36.84H31.6085Z" fill="#9E9E9E"/>
</svg>
