<svg width="30" height="30" viewBox="0 0 30 30" fill="none" xmlns="http://www.w3.org/2000/svg">
<path d="M2.5 26.7617H22.9177V23.6596H5.60417V6.34294H22.9229V17.7086H21.4417L24.4708 20.7388L27.5 17.7075H26.024V3.23877H2.5V26.7617ZM19.3208 16.4127C18.984 15.6602 18.366 15.0694 17.599 14.7669C17.2925 14.6412 16.9722 14.5524 16.6448 14.5023C16.9205 14.4605 17.1827 14.3549 17.4104 14.194C17.6615 14.0263 17.8844 13.8148 18.0844 13.5596C18.2844 13.3023 18.4437 13.0023 18.5615 12.6606C18.6812 12.3169 18.7396 11.9461 18.7396 11.5471C18.7396 10.8721 18.6083 10.3117 18.3469 9.86273C18.0875 9.41689 17.7167 9.04609 17.2708 8.78669C16.7756 8.50328 16.2338 8.31034 15.6708 8.21689C15.0287 8.10167 14.3774 8.04518 13.725 8.04814C12.9396 8.04814 12.2854 8.0669 11.7594 8.10439C11.2365 8.14294 10.775 8.19085 10.375 8.25544V21.7273C11.0875 21.8138 11.7219 21.8742 12.2854 21.9054C12.8469 21.9367 13.4125 21.9513 13.9875 21.9513C14.7051 21.9537 15.4218 21.8973 16.1302 21.7825C16.7611 21.6881 17.3693 21.4791 17.925 21.1659C18.4448 20.8659 18.8552 20.4575 19.1615 19.9398C19.4677 19.4211 19.6208 18.7575 19.6208 17.9461C19.6208 17.3471 19.5208 16.8367 19.3208 16.4127ZM13.0885 10.1263C14.0365 10.0106 15.0396 10.07 15.4854 10.4429C15.8812 10.7731 16.1177 11.0669 16.1177 11.9221C16.1177 12.7044 15.7458 13.1669 15.4844 13.3346C15.2229 13.5023 14.8698 13.7179 14.0229 13.7179H13.0885V10.1263ZM16.2437 19.1679C15.776 19.5742 15.0833 19.7429 14.3521 19.7429C13.5292 19.7429 13.0885 19.6679 13.0885 19.6679V15.7752H14.2677C15.0083 15.7752 15.7656 15.9065 16.176 16.2586C16.7062 16.7138 16.8125 17.1909 16.8125 17.8263C16.8135 18.4606 16.5917 18.8659 16.2437 19.1679Z" fill="#F3BC4E"/>
</svg>
