<svg width="30" height="30" viewBox="0 0 30 30" fill="none" xmlns="http://www.w3.org/2000/svg">
<path d="M26.0569 12.74L21.5129 12.0399L18.7437 7.51608C18.5983 7.2793 18.3943 7.08404 18.1514 6.9492C17.9084 6.81435 17.6348 6.74449 17.357 6.74637L5.7513 6.83884C5.41644 6.84167 5.09077 6.94874 4.81955 7.14516C4.54833 7.34159 4.34504 7.61761 4.23791 7.93489L2.91907 11.8457V20.8372H5.68792C5.90317 21.5368 6.33707 22.1491 6.9259 22.584C7.51474 23.0189 8.22751 23.2536 8.95955 23.2536C9.6916 23.2536 10.4044 23.0189 10.9932 22.584C11.582 22.1491 12.0159 21.5368 12.2312 20.8372H17.3662C17.5814 21.5368 18.0153 22.1491 18.6042 22.584C19.193 23.0189 19.9058 23.2536 20.6378 23.2536C21.3699 23.2536 22.0826 23.0189 22.6715 22.584C23.2603 22.1491 23.6942 21.5368 23.9094 20.8372H27.081V13.934C27.0823 13.6451 26.9795 13.3654 26.7915 13.1462C26.6034 12.9269 26.3426 12.7827 26.0569 12.74ZM13.3892 8.38873L17.3698 8.35702L19.5897 11.9837L13.3892 11.9815V8.38873ZM5.76419 8.44954L11.7784 8.40162V11.981L4.57421 11.9784L5.76419 8.44954ZM8.95955 21.6426C8.60114 21.6426 8.25078 21.5363 7.95278 21.3372C7.65477 21.138 7.4225 20.855 7.28535 20.5239C7.14819 20.1928 7.1123 19.8284 7.18223 19.4769C7.25215 19.1254 7.42474 18.8025 7.67817 18.549C7.9316 18.2956 8.2545 18.123 8.60602 18.0531C8.95754 17.9832 9.3219 18.0191 9.65303 18.1562C9.98415 18.2934 10.2672 18.5256 10.4663 18.8236C10.6654 19.1216 10.7717 19.472 10.7717 19.8304C10.7712 20.3109 10.5801 20.7715 10.2403 21.1112C9.90061 21.4509 9.44 21.642 8.95955 21.6426ZM20.6378 21.6426C20.2794 21.6426 19.9291 21.5363 19.631 21.3372C19.333 21.138 19.1008 20.855 18.9636 20.5239C18.8265 20.1928 18.7906 19.8284 18.8605 19.4769C18.9304 19.1254 19.103 18.8025 19.3564 18.549C19.6099 18.2956 19.9328 18.123 20.2843 18.0531C20.6358 17.9832 21.0002 18.0191 21.3313 18.1562C21.6624 18.2934 21.9454 18.5256 22.1446 18.8236C22.3437 19.1216 22.45 19.472 22.45 19.8304C22.4494 20.3109 22.2583 20.7715 21.9186 21.1112C21.5789 21.4509 21.1183 21.642 20.6378 21.6426ZM25.4702 19.2264H24.0063C23.8648 18.4359 23.4498 17.7205 22.834 17.2051C22.2182 16.6898 21.4408 16.4074 20.6378 16.4074C19.8348 16.4074 19.0574 16.6898 18.4416 17.2051C17.8258 17.7205 17.4109 18.4359 17.2693 19.2264H12.328C12.1865 18.4359 11.7716 17.7205 11.1558 17.2051C10.54 16.6898 9.76254 16.4074 8.95955 16.4074C8.15656 16.4074 7.37915 16.6898 6.76335 17.2051C6.14755 17.7205 5.73259 18.4359 5.59108 19.2264H4.52986V13.5899L21.1677 13.6165L25.4702 14.2794V19.2264Z" fill="#F3BC4E"/>
</svg>
