<svg width="30" height="30" viewBox="0 0 30 30" fill="none" xmlns="http://www.w3.org/2000/svg">
<path fill-rule="evenodd" clip-rule="evenodd" d="M16.6107 6.9248H6.81437C6.2887 6.9248 5.86255 7.35095 5.86255 7.87663V10.2248H17.5626V7.87663C17.5626 7.35095 17.1364 6.9248 16.6107 6.9248ZM6.81437 5.4248C5.46027 5.4248 4.36255 6.52252 4.36255 7.87663V10.2248V11.7248H4.6626V23.8254V24.5754H5.4126H18.0126H18.7626V23.8254V18.6252H19.4529C19.9414 18.6252 20.3375 19.0212 20.3375 19.5097V21.9406C20.3375 23.2576 21.4051 24.3252 22.722 24.3252H23.2529C24.5699 24.3252 25.6375 23.2576 25.6375 21.9406V15.5002V15.1895L25.4178 14.9699L23.0428 12.5949L21.9821 13.6555L22.6057 14.2791C21.9869 14.5924 21.5627 15.2343 21.5627 15.9753C21.5627 17.0246 22.4134 17.8753 23.4627 17.8753C23.7004 17.8753 23.9278 17.8316 24.1375 17.752V21.9406C24.1375 22.4292 23.7414 22.8252 23.2529 22.8252H22.722C22.2335 22.8252 21.8375 22.4292 21.8375 21.9406V19.5097C21.8375 18.1928 20.7699 17.1252 19.4529 17.1252H18.7626V11.7248H19.0626V10.2248V7.87663C19.0626 6.52252 17.9648 5.4248 16.6107 5.4248H6.81437ZM6.1626 23.0754V11.7248H17.2626V23.0754H6.1626ZM23.8627 15.9753C23.8627 16.1962 23.6837 16.3753 23.4627 16.3753C23.2418 16.3753 23.0627 16.1962 23.0627 15.9753C23.0627 15.7543 23.2418 15.5753 23.4627 15.5753C23.6837 15.5753 23.8627 15.7543 23.8627 15.9753Z" fill="#F3BC4E"/>
</svg>
