<svg width="57" height="41" viewBox="0 0 57 41" fill="none" xmlns="http://www.w3.org/2000/svg">
<path d="M20 21L19 21L19 22.3874L20.3162 21.9487L20 21ZM32 21L31.6838 21.9487L33 22.3874L33 21L32 21ZM26 21L25.6838 21.9487L26 22.0541L26.3162 21.9487L26 21ZM23 20L23.3162 19.0513L23 18.9459L22.6838 19.0513L23 20ZM29 20L29.3162 19.0513L29 18.9459L28.6838 19.0513L29 20ZM20.5858 3.58579L19.8787 2.87869L20.5858 3.58579ZM37.9234 8.76602L38.7701 9.29805L37.9234 8.76602ZM37.766 8.92336L37.234 8.07664L37.766 8.92336ZM37 6.00001L37 8.14286L39 8.14286L39 6.00001L37 6.00001ZM33 9L33 6.00001L31 6.00001L31 9L33 9ZM19 7.00001L19 21L21 21L21 7.00001L19 7.00001ZM33 21L33 9L31 9L31 21L33 21ZM37.1429 8L32 8L32 10L37.1429 10L37.1429 8ZM35 2.00001L24 2.00001L24 4.00001L35 4.00001L35 2.00001ZM26.3162 20.0513L23.3162 19.0513L22.6838 20.9487L25.6838 21.9487L26.3162 20.0513ZM22.6838 19.0513L19.6838 20.0513L20.3162 21.9487L23.3162 20.9487L22.6838 19.0513ZM32.3162 20.0513L29.3162 19.0513L28.6838 20.9487L31.6838 21.9487L32.3162 20.0513ZM28.6838 19.0513L25.6838 20.0513L26.3162 21.9487L29.3162 20.9487L28.6838 19.0513ZM21 7.00001C21 6.02893 21.0021 5.40122 21.0643 4.93871C21.1226 4.50497 21.2168 4.36903 21.2929 4.2929L19.8787 2.87869C19.369 3.38835 19.1703 4.0167 19.0821 4.67222C18.9979 5.29897 19 6.08547 19 7.00001L21 7.00001ZM24 2.00001C23.0855 2.00001 22.299 1.99788 21.6722 2.08215C21.0167 2.17028 20.3883 2.36902 19.8787 2.87869L21.2929 4.2929C21.369 4.21678 21.505 4.12263 21.9387 4.06431C22.4012 4.00213 23.0289 4.00001 24 4.00001L24 2.00001ZM33 6.00001C33 4.89544 33.8954 4.00001 35 4.00001L35 2.00001C32.7909 2.00001 31 3.79086 31 6.00001L33 6.00001ZM37 8.14286C37 8.2291 37 8.29211 36.999 8.34549C36.998 8.39898 36.9962 8.42555 36.9951 8.43747C36.994 8.44893 36.995 8.42881 37.0055 8.39156C37.0173 8.35004 37.039 8.29393 37.0766 8.23399L38.7701 9.29805C38.9253 9.0511 38.9689 8.80417 38.9857 8.63053C39.0011 8.47228 39 8.29015 39 8.14286L37 8.14286ZM37.1429 10C37.2901 10 37.4723 10.0011 37.6305 9.98575C37.8042 9.96891 38.0511 9.92525 38.298 9.77009L37.234 8.07664C37.2939 8.03897 37.35 8.01731 37.3916 8.00555C37.4288 7.99499 37.4489 7.99398 37.4375 7.99509C37.4255 7.99625 37.399 7.99798 37.3455 7.99897C37.2921 7.99996 37.2291 8 37.1429 8L37.1429 10ZM37.0766 8.23399C37.1166 8.17038 37.1704 8.1166 37.234 8.07664L38.298 9.77009C38.4889 9.6502 38.6502 9.48885 38.7701 9.29805L37.0766 8.23399ZM35 4.00001C36.1046 4.00001 37 4.89544 37 6.00001L39 6.00001C39 3.79087 37.2091 2.00001 35 2.00001L35 4.00001Z" fill="#9E9E9E"/>
<path d="M24 7L28 7" stroke="#9E9E9E" stroke-width="2" stroke-linecap="round"/>
<path d="M25 11H24" stroke="#9E9E9E" stroke-width="2" stroke-linecap="round"/>
<path d="M24 15L27 15" stroke="#9E9E9E" stroke-width="2" stroke-linecap="round"/>
<path d="M12.6439 27.088V37.936H13.6399V27.088H12.6439ZM5.01188 28.84V29.644H11.5159V28.84H5.01188ZM8.27588 30.532C6.71588 30.532 5.59988 31.564 5.59988 33.028C5.59988 34.492 6.71588 35.524 8.27588 35.524C9.83588 35.524 10.9639 34.492 10.9639 33.028C10.9639 31.564 9.83588 30.532 8.27588 30.532ZM8.27588 31.36C9.27188 31.36 10.0039 32.044 10.0039 33.028C10.0039 34 9.27188 34.696 8.27588 34.696C7.27988 34.696 6.54788 34 6.54788 33.028C6.54788 32.044 7.27988 31.36 8.27588 31.36ZM7.75988 27.196V29.332H8.75588V27.196H7.75988ZM21.6549 27.832V28.66C21.6549 30.508 19.6149 32.164 17.7069 32.524L18.1509 33.352C20.3229 32.86 22.5189 31.024 22.5189 28.66V27.832H21.6549ZM21.8349 27.832V28.66C21.8349 31.036 24.0429 32.86 26.2029 33.352L26.6469 32.524C24.7509 32.164 22.6989 30.52 22.6989 28.66V27.832H21.8349ZM17.3109 35.656V36.472H27.1389V35.656H17.3109ZM31.11 32.716V33.52H38.562V32.716H31.11ZM29.85 35.764V36.592H39.678V35.764H29.85ZM34.254 33.136V36.148H35.238V33.136H34.254ZM31.11 27.964V33.016H32.118V28.78H38.442V27.964H31.11ZM31.794 30.292V31.096H38.214V30.292H31.794ZM50.2851 27.076V37.948H51.2811V27.076H50.2851ZM43.0131 34.504V35.332H43.9131C45.7731 35.332 47.4051 35.26 49.3731 34.936L49.2651 34.12C47.3451 34.432 45.7251 34.504 43.9131 34.504H43.0131ZM42.9891 28.096V28.912H46.9971V31.156H43.0131V34.816H44.0091V31.972H48.0051V28.096H42.9891Z" fill="#9E9E9E"/>
</svg>
