<svg width="102" height="100" viewBox="0 0 102 100" fill="none" xmlns="http://www.w3.org/2000/svg">
<circle cx="50" cy="50" r="50" transform="rotate(180 50 50)" fill="url(#paint0_linear_256_2059)"/>
<path d="M19.6545 40.5188C19.6905 38.6435 20.2766 37.228 21.4126 36.2724C22.5305 35.3527 23.8198 34.8929 25.2804 34.8929C26.7951 34.8929 28.1114 35.3527 29.2293 36.2724C30.3293 37.228 30.8973 38.6435 30.9333 40.5188C30.8973 42.34 30.3293 43.7285 29.2293 44.6842C28.1114 45.6759 26.7951 46.1718 25.2804 46.1718C23.8198 46.1718 22.5305 45.6759 21.4126 44.6842C20.2766 43.7285 19.6905 42.34 19.6545 40.5188ZM13.2712 57.4777C13.3073 61.03 14.5064 63.87 16.8686 65.9977C19.1225 68.1796 21.9265 69.2885 25.2804 69.3246C28.6523 69.2885 31.5013 68.1796 33.8274 65.9977C36.1175 63.87 37.2805 61.03 37.3166 57.4777C37.2805 53.673 35.7298 50.7158 32.6644 48.6061C33.8365 47.5783 34.7921 46.3972 35.5314 45.0628C36.2347 43.8186 36.5863 42.34 36.5863 40.627C36.5502 37.3452 35.4774 34.6315 33.3676 32.4857C31.276 30.3579 28.5802 29.276 25.2804 29.24C22.0347 29.276 19.384 30.3579 17.3284 32.4857C15.1465 34.6315 14.0376 37.3452 14.0015 40.627C14.0015 42.34 14.3892 43.8186 15.1646 45.0628C15.8317 46.3972 16.7514 47.5783 17.9234 48.6061C14.858 50.7158 13.3073 53.673 13.2712 57.4777ZM18.9242 57.4236C18.9603 55.5844 19.6094 54.0877 20.8716 52.9337C22.0798 51.7977 23.5493 51.2117 25.2804 51.1756C27.0655 51.2117 28.5622 51.7977 29.7703 52.9337C30.9965 54.0877 31.6276 55.5844 31.6636 57.4236C31.6276 59.2268 30.9965 60.7054 29.7703 61.8594C28.5622 63.0676 27.0655 63.6716 25.2804 63.6716C23.5493 63.6716 22.0798 63.0676 20.8716 61.8594C19.6094 60.7054 18.9603 59.2268 18.9242 57.4236ZM38.2648 63.1307H54.7097V69H60.3627V63.1307H63.5002V57.8023H60.3627V46.4693H54.7097V57.8023H44.4046L57.7391 29.5645H51.437L38.2648 57.8023V63.1307ZM82.0023 57.64C81.8941 61.625 80.0458 63.6356 76.4575 63.6716C72.8512 63.6356 71.0119 61.625 70.9398 57.64V40.9245C71.0119 36.9756 72.8512 34.9651 76.4575 34.8929C80.0458 34.9651 81.8941 36.9756 82.0023 40.9245V57.64ZM65.2868 57.9646C65.3229 61.5889 66.486 64.3839 68.776 66.3493C70.9218 68.2968 73.4823 69.2885 76.4575 69.3246C79.5229 69.2885 82.1285 68.2968 84.2743 66.3493C86.4561 64.3839 87.5831 61.5889 87.6552 57.9646V40.5729C87.5831 36.9305 86.4561 34.1266 84.2743 32.1611C82.1285 30.2137 79.5229 29.24 76.4575 29.24C73.4823 29.24 70.9218 30.2137 68.776 32.1611C66.486 34.1266 65.3229 36.9305 65.2868 40.5729V57.9646Z" fill="#7552DE"/>
<path d="M63.27 82.39C63.31 82.14 63.33 81.86 63.33 81.57C63.33 81.22 63.3 80.89 63.24 80.59H64.84V82.39H63.27ZM60.95 83.67C60.28 83.67 59.82 82.94 59.82 81.57C59.82 80.21 60.28 79.48 60.95 79.48C61.63 79.48 62.09 80.21 62.09 81.57C62.09 82.94 61.63 83.67 60.95 83.67ZM64.84 77.64V79.53H62.88C62.47 78.74 61.78 78.29 60.95 78.29C59.58 78.29 58.57 79.55 58.57 81.57C58.57 83.6 59.58 84.87 60.95 84.87C61.84 84.88 62.55 84.36 62.96 83.46H64.84V86.88H66.16V77.64H64.84ZM66.9529 78.79V79.84H69.2829C69.1129 81.65 68.3329 82.98 66.4829 84.06L67.2529 84.98C69.8229 83.48 70.5829 81.37 70.5829 78.79H66.9529ZM73.2329 77.65V81.12H72.4129V77.89H71.1829V86.47H72.4129V82.18H73.2329V86.86H74.4929V77.65H73.2329ZM77.7358 78.26C76.2958 78.26 75.2058 79.21 75.2058 80.53C75.2058 81.86 76.2958 82.8 77.7358 82.8C79.1758 82.8 80.2758 81.86 80.2758 80.53C80.2758 79.21 79.1758 78.26 77.7358 78.26ZM77.7358 79.39C78.4458 79.39 78.9858 79.81 78.9858 80.53C78.9858 81.25 78.4458 81.67 77.7358 81.67C77.0258 81.67 76.4858 81.25 76.4858 80.53C76.4858 79.81 77.0258 79.39 77.7358 79.39ZM81.1358 77.64V86.88H82.4558V77.64H81.1358ZM74.9858 85.01C76.5758 85.01 78.7358 84.99 80.7158 84.59L80.6358 83.64C78.6958 83.93 76.4358 83.94 74.8158 83.94L74.9858 85.01ZM88.4747 79.01C89.6747 79.01 90.4447 79.37 90.4447 80.02C90.4447 80.68 89.6747 81.03 88.4747 81.03C87.2647 81.03 86.4947 80.68 86.4947 80.02C86.4947 79.37 87.2647 79.01 88.4747 79.01ZM88.4747 82.08C90.4347 82.08 91.8047 81.28 91.8047 80.02C91.8047 78.77 90.4347 77.96 88.4747 77.96C86.5047 77.96 85.1447 78.77 85.1447 80.02C85.1447 81.28 86.5047 82.08 88.4747 82.08ZM92.6647 82.77H84.3247V83.84H86.2147V86.85H87.5447V83.84H89.3947V86.85H90.7347V83.84H92.6647V82.77ZM98.8776 83.51H100.198V77.65H98.8776V79.67H97.6976V80.72H98.8776V81.51H97.6776V82.56H98.8776V83.51ZM97.5776 78.48H95.7776V77.58H94.4576V78.48H92.5276V79.52H97.5776V78.48ZM94.1876 81.56C94.1876 81.08 94.5576 80.82 95.1176 80.82C95.6676 80.82 96.0476 81.08 96.0476 81.56C96.0476 82.04 95.6676 82.3 95.1176 82.3C94.5576 82.3 94.1876 82.04 94.1876 81.56ZM97.2676 81.56C97.2676 80.54 96.3776 79.84 95.1176 79.84C93.8476 79.84 92.9576 80.54 92.9576 81.56C92.9576 82.58 93.8476 83.28 95.1176 83.28C96.3776 83.28 97.2676 82.58 97.2676 81.56ZM97.0876 85.86C95.9476 85.86 95.3276 85.67 95.3276 85.25C95.3276 84.82 95.9476 84.64 97.0876 84.64C98.2176 84.64 98.8476 84.82 98.8476 85.25C98.8476 85.67 98.2176 85.86 97.0876 85.86ZM97.0876 83.63C95.1476 83.63 93.9276 84.23 93.9276 85.25C93.9276 86.26 95.1476 86.86 97.0876 86.86C99.0276 86.86 100.238 86.26 100.238 85.25C100.238 84.23 99.0276 83.63 97.0876 83.63Z" fill="#7552DE"/>
<defs>
<linearGradient id="paint0_linear_256_2059" x1="88" y1="91" x2="6.5" y2="7.00001" gradientUnits="userSpaceOnUse">
<stop stop-color="#E9E8FF"/>
<stop offset="1" stop-color="white"/>
</linearGradient>
</defs>
</svg>
