<svg width="57" height="43" viewBox="0 0 57 43" fill="none" xmlns="http://www.w3.org/2000/svg">
<path d="M36.7274 20.4471C36.2716 19.1713 35.2672 18.0439 33.8701 17.2399C32.4729 16.4358 30.7611 16 29 16C27.2389 16 25.5271 16.4358 24.1299 17.2399C22.7328 18.0439 21.7284 19.1713 21.2726 20.4471" stroke="#9E9E9E" stroke-width="2" stroke-linecap="round"/>
<circle cx="29" cy="8" r="4" stroke="#9E9E9E" stroke-width="2" stroke-linecap="round"/>
<path d="M20.8934 39H21.9014V34.14C21.9014 33.372 21.8174 32.316 21.7574 31.536H21.8054L22.5014 33.54L24.1694 38.124H24.9134L26.5814 33.54L27.2774 31.536H27.3374C27.2774 32.316 27.1934 33.372 27.1934 34.14V39H28.2254V30.204H26.8814L25.2134 34.92C25.0094 35.52 24.8174 36.132 24.6014 36.756H24.5534C24.3374 36.132 24.1334 35.52 23.9174 34.92L22.2254 30.204H20.8934V39ZM33.5596 39H34.6636V35.592L37.3036 30.204H36.1636L35.0236 32.7C34.7476 33.348 34.4476 33.96 34.1356 34.62H34.0876C33.7876 33.96 33.5236 33.348 33.2236 32.7L32.0956 30.204H30.9076L33.5596 35.592V39Z" fill="#9E9E9E"/>
</svg>
