<svg width="350" height="125" viewBox="0 0 350 125" fill="none" xmlns="http://www.w3.org/2000/svg">
<g filter="url(#filter0_d_403_1991)">
<rect x="10" y="5.7832" width="330" height="105" rx="8" fill="white"/>
</g>
<path d="M281.5 62.5229V62.5229C265.69 62.5229 251.25 58.7804 238.98 48.8108C235.878 46.2904 230.792 43.6684 220.813 40.9909C208.643 39.3576 186.98 37.3097 173.644 41.3603C161.915 44.9227 152.181 54.0503 143.995 58.767C141.874 59.9892 139.519 60.693 137.107 61.1115C132.262 61.9523 122.622 63.4036 108.691 64.477C101.691 65.0164 94.0052 65.2312 87.4704 66.9043C75.7396 69.9078 70.8651 75.8044 69.5 79" stroke="#1A1A1A" stroke-width="6"/>
<defs>
<filter id="filter0_d_403_1991" x="0.280001" y="0.493583" width="349.44" height="124.44" filterUnits="userSpaceOnUse" color-interpolation-filters="sRGB">
<feFlood flood-opacity="0" result="BackgroundImageFix"/>
<feColorMatrix in="SourceAlpha" type="matrix" values="0 0 0 0 0 0 0 0 0 0 0 0 0 0 0 0 0 0 127 0" result="hardAlpha"/>
<feOffset dy="4.43038"/>
<feGaussianBlur stdDeviation="4.86"/>
<feColorMatrix type="matrix" values="0 0 0 0 0.376471 0 0 0 0 0.392157 0 0 0 0 0.439216 0 0 0 0.06 0"/>
<feBlend mode="normal" in2="BackgroundImageFix" result="effect1_dropShadow_403_1991"/>
<feBlend mode="normal" in="SourceGraphic" in2="effect1_dropShadow_403_1991" result="shape"/>
</filter>
</defs>
</svg>
