<svg width="30" height="30" viewBox="0 0 30 30" fill="none" xmlns="http://www.w3.org/2000/svg">
<path fill-rule="evenodd" clip-rule="evenodd" d="M15 28.125C22.2487 28.125 28.125 22.2487 28.125 15C28.125 7.75126 22.2487 1.875 15 1.875C7.75126 1.875 1.875 7.75126 1.875 15C1.875 22.2487 7.75126 28.125 15 28.125ZM21.6016 11.2652C21.9551 10.8409 21.8978 10.2103 21.4735 9.85678C21.0492 9.50321 20.4187 9.56054 20.0651 9.98482L14.1755 17.0524C13.8288 17.4684 13.6339 17.6988 13.4782 17.8403L13.4723 17.8457L13.4659 17.8409C13.2981 17.714 13.0831 17.5022 12.7002 17.1193L9.87377 14.2929C9.48325 13.9024 8.85008 13.9024 8.45956 14.2929C8.06904 14.6834 8.06904 15.3166 8.45956 15.7071L11.2859 18.5335L11.3268 18.5743L11.3268 18.5744C11.6533 18.901 11.9674 19.2152 12.2596 19.4361C12.587 19.6837 13.0157 19.9165 13.5651 19.8915C14.1145 19.8666 14.5204 19.596 14.824 19.3198C15.095 19.0733 15.3794 18.7319 15.675 18.3771L15.7119 18.3327L21.6016 11.2652Z" fill="#F3BC4E"/>
</svg>
