<svg width="106" height="105" viewBox="0 0 106 105" fill="none" xmlns="http://www.w3.org/2000/svg">
<ellipse cx="53.0848" cy="52.9074" rx="52.1127" ry="52.032" transform="rotate(180 53.0848 52.9074)" fill="#B5BFCB"/>
<ellipse cx="53.0848" cy="52.9074" rx="52.1127" ry="52.032" transform="rotate(180 53.0848 52.9074)" fill="url(#paint0_linear_1857_7276)"/>
<path d="M21.133 43.1263C21.1691 41.2509 21.7551 39.8355 22.8911 38.8798C24.0091 37.9602 25.2983 37.5003 26.7589 37.5003C28.2736 37.5003 29.5899 37.9602 30.7079 38.8798C31.8078 39.8355 32.3758 41.2509 32.4119 43.1263C32.3758 44.9475 31.8078 46.3359 30.7079 47.2916C29.5899 48.2833 28.2736 48.7792 26.7589 48.7792C25.2983 48.7792 24.0091 48.2833 22.8911 47.2916C21.7551 46.3359 21.1691 44.9475 21.133 43.1263ZM14.7498 60.0851C14.7858 63.6374 15.9849 66.4774 18.3471 68.6051C20.6011 70.787 23.405 71.8959 26.7589 71.932C30.1308 71.8959 32.9799 70.787 35.306 68.6051C37.596 66.4774 38.759 63.6374 38.7951 60.0851C38.759 56.2804 37.2083 53.3232 34.1429 51.2135C35.315 50.1857 36.2707 49.0046 37.01 47.6703C37.7132 46.4261 38.0648 44.9475 38.0648 43.2344C38.0288 39.9527 36.9559 37.2389 34.8462 35.0931C32.7545 32.9654 30.0587 31.8834 26.7589 31.8474C23.5132 31.8834 20.8625 32.9654 18.8069 35.0931C16.6251 37.2389 15.5161 39.9527 15.48 43.2344C15.48 44.9475 15.8677 46.4261 16.6431 47.6703C17.3103 49.0046 18.2299 50.1857 19.4019 51.2135C16.3366 53.3232 14.7858 56.2804 14.7498 60.0851ZM20.4027 60.031C20.4388 58.1918 21.0879 56.6952 22.3501 55.5411C23.5583 54.4051 25.0279 53.8191 26.7589 53.783C28.5441 53.8191 30.0407 54.4051 31.2488 55.5411C32.475 56.6952 33.1061 58.1918 33.1422 60.031C33.1061 61.8342 32.475 63.3128 31.2488 64.4668C30.0407 65.675 28.5441 66.279 26.7589 66.279C25.0279 66.279 23.5583 65.675 22.3501 64.4668C21.0879 63.3128 20.4388 61.8342 20.4027 60.031ZM39.7433 65.7381H56.1882V71.6074H61.8412V65.7381H64.9787V60.4097H61.8412V49.0767H56.1882V60.4097H45.8831L59.2176 32.172H52.9155L39.7433 60.4097V65.7381ZM83.4808 60.2474C83.3726 64.2324 81.5244 66.243 77.936 66.279C74.3297 66.243 72.4905 64.2324 72.4183 60.2474V43.532C72.4905 39.583 74.3297 37.5725 77.936 37.5003C81.5244 37.5725 83.3726 39.583 83.4808 43.532V60.2474ZM66.7654 60.572C66.8014 64.1964 67.9645 66.9913 70.2545 68.9568C72.4003 70.9042 74.9608 71.8959 77.936 71.932C81.0014 71.8959 83.607 70.9042 85.7528 68.9568C87.9347 66.9913 89.0616 64.1964 89.1338 60.572V43.1803C89.0616 39.5379 87.9347 36.734 85.7528 34.7685C83.607 32.8211 81.0014 31.8474 77.936 31.8474C74.9608 31.8474 72.4003 32.8211 70.2545 34.7685C67.9645 36.734 66.8014 39.5379 66.7654 43.1803V60.572Z" fill="#FAFAFA"/>
<path d="M64.9211 86.6059V87.6759H67.4411V86.6059H64.9211ZM64.9211 89.4759V90.5459H67.4411V89.4759H64.9211ZM63.3211 85.3559C61.9311 85.3559 60.9311 86.6359 60.9311 88.6559C60.9311 90.6959 61.9311 91.9759 63.3211 91.9759C64.7011 91.9759 65.7111 90.6959 65.7111 88.6559C65.7111 86.6359 64.7011 85.3559 63.3211 85.3559ZM63.3211 86.5659C64.0011 86.5659 64.4511 87.2959 64.4511 88.6559C64.4511 90.0359 64.0011 90.7759 63.3211 90.7759C62.6511 90.7759 62.1911 90.0359 62.1911 88.6559C62.1911 87.2959 62.6511 86.5659 63.3211 86.5659ZM67.2311 84.7059V93.9959H68.5511V84.7059H67.2311ZM75.614 84.7159V93.9759H76.884V84.7159H75.614ZM74.444 88.2059V89.2659H75.974V88.2059H74.444ZM71.684 85.8459V86.1259C71.684 88.3459 70.944 89.9059 68.834 91.1559L69.604 92.0759C72.194 90.5659 72.954 88.4559 72.954 85.8459H71.684ZM69.304 85.8459V86.9159H72.074V85.8459H69.304ZM73.564 84.9559V93.5759H74.804V84.9559H73.564ZM80.1069 85.3259C78.6569 85.3259 77.5469 86.2759 77.5469 87.6059C77.5469 88.9459 78.6569 89.8959 80.1069 89.8959C81.5669 89.8959 82.6569 88.9459 82.6569 87.6059C82.6569 86.2759 81.5669 85.3259 80.1069 85.3259ZM80.1069 86.4659C80.8169 86.4659 81.3569 86.8859 81.3569 87.6059C81.3569 88.3359 80.8169 88.7559 80.1069 88.7559C79.3969 88.7559 78.8569 88.3359 78.8569 87.6059C78.8569 86.8859 79.3969 86.4659 80.1069 86.4659ZM83.5269 84.7059V93.9959H84.8569V84.7059H83.5269ZM77.3269 92.1159C78.9269 92.1159 81.1069 92.0959 83.1169 91.6959L83.0169 90.7359C81.0669 91.0259 78.7969 91.0459 77.1669 91.0459L77.3269 92.1159ZM88.5658 90.5659V93.9759H89.9258V90.5659H88.5658ZM91.7658 90.5659V93.9759H93.1258V90.5659H91.7658ZM86.6758 89.8659V90.9359H95.0658V89.8659H86.6758ZM90.8458 85.0259C88.8758 85.0259 87.5058 85.8359 87.5058 87.1059C87.5058 88.3559 88.8758 89.1659 90.8458 89.1659C92.8258 89.1659 94.1958 88.3559 94.1958 87.1059C94.1958 85.8359 92.8258 85.0259 90.8458 85.0259ZM90.8458 86.0859C92.0658 86.0859 92.8258 86.4459 92.8258 87.1059C92.8258 87.7559 92.0658 88.1159 90.8458 88.1159C89.6358 88.1159 88.8658 87.7559 88.8658 87.1059C88.8658 86.4459 89.6358 86.0859 90.8458 86.0859ZM100.079 86.7459V87.8059H101.779V86.7459H100.079ZM100.059 88.5959V89.6559H101.749V88.5959H100.059ZM94.8787 85.5459V86.5959H99.9587V85.5459H94.8787ZM97.4787 86.9159C96.2087 86.9159 95.3087 87.6159 95.3087 88.6459C95.3087 89.6759 96.2087 90.3759 97.4787 90.3759C98.7487 90.3759 99.6487 89.6759 99.6487 88.6459C99.6487 87.6159 98.7487 86.9159 97.4787 86.9159ZM97.4787 87.9059C98.0287 87.9059 98.4187 88.1559 98.4187 88.6459C98.4187 89.1359 98.0287 89.3859 97.4787 89.3859C96.9187 89.3859 96.5487 89.1359 96.5487 88.6459C96.5487 88.1559 96.9187 87.9059 97.4787 87.9059ZM96.8187 84.6359V86.2759H98.1487V84.6359H96.8187ZM101.269 84.7159V90.6159H102.599V84.7159H101.269ZM99.4687 90.7259C97.5087 90.7259 96.2987 91.3359 96.2987 92.3559C96.2987 93.3759 97.5087 93.9759 99.4687 93.9759C101.419 93.9759 102.639 93.3759 102.639 92.3559C102.639 91.3359 101.419 90.7259 99.4687 90.7259ZM99.4687 91.7459C100.609 91.7459 101.229 91.9259 101.229 92.3559C101.229 92.7759 100.609 92.9759 99.4687 92.9759C98.3287 92.9759 97.6987 92.7759 97.6987 92.3559C97.6987 91.9259 98.3287 91.7459 99.4687 91.7459Z" fill="#E4813A"/>
<defs>
<linearGradient id="paint0_linear_1857_7276" x1="8.31023" y1="1.31112" x2="105.222" y2="105.422" gradientUnits="userSpaceOnUse">
<stop stop-opacity="0.3"/>
<stop offset="1" stop-opacity="0"/>
</linearGradient>
</defs>
</svg>
