<svg width="276" height="183" viewBox="0 0 276 183" fill="none" xmlns="http://www.w3.org/2000/svg">
<g clip-path="url(#clip0_838_4892)">
<path d="M27.5419 181.975C27.5419 181.975 -3.52861 146.353 9.44498 104.481C21.0895 66.8997 73.74 42.5775 101.716 61.1907C115.25 70.1947 126.184 34.0042 171.101 20.7566C204.317 10.9591 253.433 32.9313 240.958 100.216C231.474 151.373 278.519 125.867 268.246 182.381L27.5419 181.975Z" fill="#EBF3FA"/>
<path d="M192.167 53.9351C192.167 53.9351 185.415 46.6266 191.305 41.6017C191.305 41.6017 195.638 38.7497 199.261 38.8309C199.261 38.8309 194.461 47.6195 196.151 48.4119C197.84 49.2043 200.793 38.2329 200.793 38.2329C200.793 38.2329 210.846 36.8746 214.15 38.3141C214.15 38.3141 205.79 45.7014 207.623 46.0545C209.455 46.4064 218.511 39.1237 218.511 39.1237C218.511 39.1237 227.962 40.3701 227.676 46.1209C227.391 51.8718 224.221 53.7641 222.794 53.6644C221.366 53.566 212.928 50.7004 212.791 51.873C212.653 53.0455 217.803 56.669 221.317 56.7145C221.317 56.7145 214.972 64.2691 210.493 62.3263C206.014 60.3835 205.513 57.0541 202.723 55.9037C199.934 54.7533 197.593 54.8444 198.773 56.0809C199.953 57.3174 204.964 58.3731 206.637 61.0898C208.309 63.8077 209.787 65.6274 205.21 65.1131C200.632 64.5988 193.108 61.5438 192.639 57.7395L192.171 53.9351H192.167Z" fill="#599DAD"/>
<path d="M223.067 46.4495C223.067 46.4495 197.525 46.4249 192.167 53.9351C192.167 53.9351 191.062 57.7149 187.356 61.2584L186.82 62.9108C186.82 62.9108 191.064 58.0815 192.636 57.7395C192.636 57.7395 189.822 48.7897 223.067 46.4482V46.4495Z" fill="#599DAD"/>
<path d="M187.356 61.2596C187.356 61.2596 182.034 65.5168 181.925 72.7699L182.923 72.8216C182.923 72.8216 184.391 65.2707 187.441 62.2255C190.491 59.1791 187.357 61.2596 187.357 61.2596H187.356Z" fill="#599DAD"/>
<path d="M176.907 45.2252C176.907 45.2252 161.731 41.7998 164.867 30.0989C164.867 30.0989 167.923 22.5788 172.664 19.4696C172.664 19.4696 174.266 35.0524 177.145 34.575C180.025 34.0976 174.108 17.341 174.108 17.341C174.108 17.341 185.857 6.67113 191.39 5.59454C191.39 5.59454 187.164 22.5308 189.837 21.3582C192.51 20.1857 197.726 2.76712 197.726 2.76712C197.726 2.76712 211.005 -4.0123 215.734 3.65177C220.461 11.3158 218.055 16.5646 216.127 17.704C214.2 18.8433 200.789 22.6391 201.651 24.2718C202.513 25.9045 212.359 26.0017 216.927 22.9454C216.927 22.9454 215.444 38.3105 207.951 39.7808C200.459 41.2511 196.864 37.4074 192.249 38.4003C187.635 39.3932 184.7 41.5882 187.315 42.1333C189.932 42.6783 197.322 39.5938 201.885 41.6104C206.448 43.627 209.964 44.6605 203.61 48.06C197.256 51.4596 184.854 54.1996 180.879 49.7124L176.905 45.2252H176.907Z" fill="#86D1CD"/>
<path d="M210.086 8.16235C210.086 8.16235 177.155 30.7928 176.905 45.2252C176.905 45.2252 178.831 51.0769 177.196 58.9305L177.968 61.5352C177.968 61.5352 179.158 51.5469 180.879 49.7124C180.879 49.7124 169.326 40.6765 210.084 8.16235H210.086Z" fill="#6BB7BF"/>
<path d="M177.197 58.9304C177.197 58.9304 174.111 69.1377 180.398 78.5797L181.729 77.7614C181.729 77.7614 176.929 66.7298 178.161 60.0993C179.393 53.4675 177.198 58.9292 177.198 58.9292L177.197 58.9304Z" fill="#6BB7BF"/>
<path d="M92.6065 132.365C92.6065 132.365 107.782 128.939 104.646 117.238C104.646 117.238 101.59 109.718 96.8495 106.609C96.8495 106.609 95.2475 122.192 92.368 121.713C89.4885 121.235 95.4048 104.479 95.4048 104.479C95.4048 104.479 83.6558 93.8094 78.1231 92.7328C78.1231 92.7328 82.3489 109.669 79.6759 108.497C77.003 107.324 71.7875 89.9054 71.7875 89.9054C71.7875 89.9054 58.5078 83.126 53.7792 90.7901C49.0518 98.4541 51.4579 103.703 53.3857 104.842C55.3136 105.982 68.7236 109.777 67.8618 111.41C66.9999 113.043 57.1541 113.141 52.5866 110.084C52.5866 110.084 54.0693 125.449 61.5618 126.919C69.0544 128.389 72.6494 124.546 77.2625 125.539C81.8767 126.532 84.8115 128.727 82.1964 129.272C79.58 129.817 72.1896 126.732 67.6269 128.749C63.0643 130.765 59.5479 131.799 65.902 135.198C72.256 138.598 84.6579 141.338 88.6328 136.851L92.6065 132.364V132.365Z" fill="#86D1CD"/>
<path d="M59.4263 95.3019C59.4263 95.3019 92.357 117.932 92.6066 132.365C92.6066 132.365 90.6812 138.216 92.3164 146.07L91.5443 148.675C91.5443 148.675 90.3541 138.686 88.6328 136.852C88.6328 136.852 100.186 127.816 59.4275 95.3019H59.4263Z" fill="#6BB7BF"/>
<path d="M92.3151 146.069C92.3151 146.069 95.4011 156.276 89.1135 165.718L87.7832 164.9C87.7832 164.9 92.5831 153.869 91.3512 147.238C90.1192 140.607 92.3151 146.068 92.3151 146.068V146.069Z" fill="#6BB7BF"/>
<path d="M193.221 27.1755H82.778V182.381H193.221V27.1755Z" fill="#739AF0"/>
<path d="M189.34 31.4745H86.6594V179.508H189.34V31.4745Z" fill="#DDEBFD"/>
<path d="M181.061 49.6375H97.2343V54.4347H181.061V49.6375Z" fill="#A8C3F7"/>
<path d="M181.061 78.9193H97.2343V81.1205H181.061V78.9193Z" fill="#A8C3F7"/>
<path d="M181.061 84.098H97.2343V86.2992H181.061V84.098Z" fill="#A8C3F7"/>
<path d="M181.061 89.2767H97.2343V91.4779H181.061V89.2767Z" fill="#A8C3F7"/>
<path d="M181.061 94.4542H97.2343V96.6554H181.061V94.4542Z" fill="#A8C3F7"/>
<path d="M181.061 99.6328H97.2343V101.834H181.061V99.6328Z" fill="#A8C3F7"/>
<path d="M181.061 104.812H97.2343V107.013H181.061V104.812Z" fill="#A8C3F7"/>
<path d="M121.781 134.886C121.781 138.46 118.886 141.359 115.313 141.359C111.74 141.359 108.844 138.461 108.844 134.886C108.844 131.31 111.74 128.413 115.313 128.413C118.886 128.413 121.781 131.31 121.781 134.886Z" fill="#A8C3F7"/>
<path d="M148.861 141.108C148.842 141.108 148.825 141.107 148.807 141.103C148.631 141.073 148.511 140.906 148.542 140.73C148.602 140.375 150.074 132.001 154.715 129.15C155.046 128.947 155.254 129.053 155.347 129.134C155.754 129.482 155.445 130.372 154.048 133.726C153.491 135.062 152.831 136.647 152.559 137.61C153.053 136.962 153.793 135.85 154.381 134.968C156.217 132.211 156.574 131.761 156.932 131.761C157.065 131.761 157.184 131.822 157.259 131.93C157.455 132.211 157.307 132.679 156.799 134.053C156.605 134.579 156.308 135.387 156.222 135.82C156.485 135.582 156.872 135.077 157.106 134.773C157.741 133.945 158.065 133.548 158.443 133.609C158.522 133.621 158.716 133.678 158.81 133.935C158.848 134.041 158.866 134.161 158.885 134.289C158.935 134.621 158.992 134.997 159.39 135.222C160.195 135.677 162.518 135.65 169.003 132.944C169.168 132.875 169.357 132.954 169.426 133.119C169.495 133.284 169.416 133.473 169.252 133.542C163.776 135.827 160.445 136.56 159.072 135.786C158.403 135.41 158.303 134.778 158.245 134.396C158.061 134.591 157.805 134.924 157.617 135.169C156.915 136.084 156.454 136.634 155.983 136.595C155.839 136.583 155.717 136.509 155.64 136.387C155.415 136.033 155.635 135.335 156.191 133.83C156.279 133.589 156.381 133.312 156.471 133.055C156.022 133.669 155.413 134.586 154.918 135.328C152.863 138.416 152.49 138.865 152.076 138.752C152.012 138.734 151.804 138.655 151.787 138.354C151.745 137.632 152.419 135.955 153.45 133.478C153.975 132.22 154.661 130.571 154.831 129.846C150.609 132.683 149.194 140.757 149.179 140.84C149.152 140.997 149.016 141.109 148.861 141.109V141.108Z" fill="#A8C3F7"/>
<path d="M162.191 24.6606H149.168C149.459 23.8892 149.62 23.0538 149.62 22.179C149.62 18.3057 146.483 15.167 142.614 15.167C138.744 15.167 135.607 18.3069 135.607 22.179C135.607 23.0525 135.768 23.8892 136.059 24.6606H123.036C121.989 24.6606 121.139 25.5108 121.139 26.5591V31.8239C121.139 32.8722 121.989 33.7224 123.036 33.7224H162.191C163.238 33.7224 164.088 32.8722 164.088 31.8239V26.5591C164.088 25.5108 163.238 24.6606 162.191 24.6606ZM142.614 24.7689C141.185 24.7689 140.027 23.6099 140.027 22.1802C140.027 20.7505 141.185 19.5915 142.614 19.5915C144.042 19.5915 145.2 20.7505 145.2 22.1802C145.2 23.6099 144.042 24.7689 142.614 24.7689Z" fill="#F99746"/>
<path d="M123.036 33.7224H162.191C163.238 33.7224 164.088 32.8722 164.088 31.8239V26.5591L123.036 33.7224Z" fill="#ED7D2B"/>
<path d="M18.4375 181.771C21.0478 179.102 25.6461 177.266 30.9575 177.05V169.184H21.7941C21.5912 169.184 21.4092 169.007 21.2937 168.734C21.2137 168.542 21.1658 168.303 21.1658 168.045V167.647C21.1658 167.021 21.4486 166.508 21.7941 166.508H30.9575V144.537C30.9575 143.956 31.432 143.481 32.0124 143.481C32.5927 143.481 33.0673 143.956 33.0673 144.537V166.508H42.2307C42.5762 166.508 42.8589 167.021 42.8589 167.647V168.045C42.8589 168.312 42.8073 168.558 42.7225 168.752C42.6069 169.015 42.4298 169.184 42.2307 169.184H33.0673V177.05C38.3787 177.266 42.977 179.102 45.5872 181.771C45.7765 181.965 45.956 182.162 46.1232 182.364H17.9015C18.0687 182.162 18.2482 181.964 18.4375 181.771Z" fill="#D39E7A"/>
<path d="M30.9575 177.089C34.6632 177.432 37.8488 179.223 39.6918 181.771C39.832 181.965 39.9648 182.162 40.089 182.364H42.7004C42.5762 182.162 42.4447 181.964 42.3033 181.771C40.2463 178.927 36.5197 177.029 32.2632 177.029C31.8219 177.029 31.3854 177.05 30.9575 177.089Z" fill="#E0B594"/>
<path d="M59.8444 177.127C59.8444 177.127 60.164 182.28 61.1599 182.354C61.2927 182.364 66.2131 182.364 66.2131 182.364L72.4946 182.327C72.4946 182.327 72.454 180.812 70.6172 180.492C68.7815 180.173 65.7078 178.881 64.5963 176.453C63.4259 173.899 59.8456 177.127 59.8456 177.127H59.8444Z" fill="#163560"/>
<path d="M34.968 139.266C35.8643 140.788 36.902 142.214 37.9705 143.565C41.2741 147.738 44.8704 151.18 45.4974 154.433C45.6216 155.081 45.8195 155.779 46.0777 156.515C46.3396 157.26 46.663 158.043 47.0355 158.854C48.4371 161.901 50.5346 165.316 52.6272 168.42C56.2456 173.786 59.2075 177.386 59.2075 177.386C59.2075 177.386 60.1566 178.126 62.8701 178.125C63.625 178.125 66.1676 177.711 66.1676 177.711C65.918 177.084 62.9168 169.962 59.2751 160.907C57.7972 157.232 56.2247 153.322 54.7075 149.552C54.5059 149.049 54.303 148.547 54.1038 148.05C53.6403 146.896 53.1842 145.76 52.7379 144.654C49.3187 136.152 46.5966 129.382 46.5966 129.382C46.5966 129.382 32.9332 124.202 31.5132 127.559C30.3427 130.326 31.2955 133.038 34.9656 139.265L34.968 139.266Z" fill="#233862"/>
<path d="M78.9138 125.054H58.2202V182.365H78.9138V125.054Z" fill="#D39E7A"/>
<path d="M78.0531 182.365H92.8562V125.054H78.0531V182.365Z" fill="#F2C7AA"/>
<path d="M78.1969 123.899H56.816V125.054H78.1969V123.899Z" fill="#AF7D5B"/>
<path d="M94.3869 123.899H78.1957V125.054H94.3869V123.899Z" fill="#E2B291"/>
<path d="M56.4915 116.185C56.4915 116.185 59.457 117.872 60.2869 117.872C61.1168 117.872 64.375 117.242 65.2835 117.706C66.1921 118.17 67.836 120.039 68.1446 120.649C68.6991 121.747 65.9118 121.262 64.5938 120.327C64.4032 120.191 64.1647 120.141 63.936 120.19C63.2537 120.339 61.8361 120.597 61.1512 120.344C60.2303 120.003 55.3812 119.624 55.3812 119.624L56.4915 116.184V116.185Z" fill="#ED975D"/>
<path d="M33.9315 93.2054C33.9315 93.2054 37.0052 115.068 42.0953 117.027C44.6072 117.993 55.7058 120.184 58.9898 120.403C58.9898 120.403 59.7939 119.75 59.5984 117.092C59.5984 117.092 47.9699 112.82 46.3174 110.496C43.8584 107.039 47.8432 96.3687 44.7584 93.1217C41.6736 89.8735 36.4766 88.4782 33.9315 93.2054Z" fill="#82B378"/>
<path d="M45.3941 162.407C45.3941 162.407 41.054 165.198 41.4745 166.104C41.5311 166.225 43.9286 170.524 43.9286 170.524L47.022 175.994C47.022 175.994 48.324 175.22 47.708 173.46C47.092 171.699 46.7207 168.384 48.2969 166.229C49.9555 163.961 45.3929 162.406 45.3929 162.406L45.3941 162.407Z" fill="#163560"/>
<path d="M47.8605 167.758C47.8605 167.758 44.8052 164.918 44.327 163.163C44.327 163.163 55.5043 149.761 57.9288 146.757C58.0395 146.619 58.0112 146.467 57.8649 146.301C56.0342 144.236 35.6972 140.038 33.039 135.899C32.123 134.472 31.6042 133.119 31.3214 131.937C30.719 129.412 31.1948 127.667 31.1948 127.667L51.506 127.079C51.506 127.079 68.4164 137.616 70.3319 144.802C72.2463 151.986 47.8593 167.758 47.8593 167.758H47.8605Z" fill="#2B478B"/>
<path d="M57.8649 146.301C56.0342 144.235 35.6972 140.037 33.039 135.898C32.123 134.472 31.6042 133.119 31.3214 131.937V129.364L39.9537 128.005C39.9537 128.005 42.4016 135.544 49.6519 138.37C56.4424 141.018 57.7284 145.716 57.8637 146.301H57.8649Z" fill="#233862"/>
<path d="M45.9487 91.8273C41.8397 92.8904 35.0283 89.0811 35.0283 89.0811C35.0283 89.0811 37.673 87.302 38.6529 83.3943C38.7033 83.1974 38.7475 82.9956 38.7881 82.7889C39.2184 82.6979 40.0299 82.5256 40.8979 82.3411L44.0356 85.155C44.0356 85.155 43.9643 86.3238 43.5721 88.3318C43.5044 88.6825 43.4257 89.0577 43.336 89.4588C45.0204 90.5034 45.9487 91.8286 45.9487 91.8286V91.8273Z" fill="#FFB27D"/>
<path d="M30.6783 108.871C31.2672 116.792 30.4927 128.84 31.1603 130.927C31.7369 132.727 38.3024 131.656 40.9224 131.056C41.8925 130.833 43.0667 130.516 44.2802 130.14C47.665 129.092 51.3522 127.593 51.7481 126.482C51.7629 126.438 51.7764 126.396 51.785 126.354C51.8219 126.193 51.8133 126.042 51.7776 125.888C51.6461 125.322 51.1371 124.708 51.078 123.306C51.0117 121.739 51.0215 119.894 50.9625 117.91C50.96 117.688 50.9563 117.444 50.9317 117.221V117.14C50.9293 117.097 50.928 117.055 50.928 117.013C50.8715 114.801 50.7559 112.474 50.6219 110.169C50.5371 108.719 50.4387 107.285 50.3244 105.91C50.0293 102.362 49.6309 99.206 49.1047 97.2115C48.2441 93.9596 46.347 91.8384 44.6208 90.2844L43.3716 89.2128C41.9774 89.5179 40.3298 89.3149 38.8397 88.6087C37.2266 87.8421 36.6696 87.2934 36.3881 87.5001C32.6627 90.3767 29.9837 99.19 30.6783 108.874V108.871Z" fill="#A8D29F"/>
<path d="M44.2802 130.139C47.665 129.091 51.3522 127.592 51.7481 126.481C51.7629 126.437 51.7764 126.395 51.785 126.353C51.7826 126.198 51.7813 126.043 51.7777 125.887C51.6461 125.321 51.1371 124.707 51.0781 123.304C51.0117 121.738 51.0215 119.892 50.9625 117.909C50.96 117.686 50.9563 117.443 50.9318 117.22V117.139C50.9293 117.096 50.9281 117.054 50.9281 117.012L37.2451 99.5676C37.2451 99.5676 28.0472 118.735 44.2802 130.14V130.139Z" fill="#82B378"/>
<path d="M44.0368 85.1537C44.0368 85.1537 43.9655 86.3226 43.5732 88.3306C40.5081 87.3389 39.1188 84.5693 38.6541 83.3943C38.7045 83.1974 38.7487 82.9956 38.7893 82.7889C39.2196 82.6979 40.0311 82.5256 40.8991 82.3411L44.0368 85.155V85.1537Z" fill="#ED975D"/>
<path d="M44.4487 86.9242C44.4487 86.9242 37.7652 85.8082 38.5238 81.6532C39.2824 77.4994 38.9307 74.5563 43.2303 75.094C47.5298 75.6305 48.0671 77.3678 48.1507 78.8159C48.2343 80.2641 46.2069 87.1075 44.4487 86.9242Z" fill="#FFB27D"/>
<path d="M59.0882 122.879L75.7785 122.876L80.3141 108.201L80.9067 108.385L76.1117 123.899H59.0808L59.0882 122.879Z" fill="#1C468A"/>
<path d="M54.662 123.303C54.662 123.303 60.132 124.746 62.184 124.595C64.2348 124.444 65.9413 123.467 66.1995 122.957C66.4577 122.448 66.9999 121.543 65.6032 121.711C64.2065 121.878 62.2996 122.175 62.2406 121.906C62.1816 121.638 63.3791 121.664 63.3791 121.664C63.3791 121.664 63.7406 121.137 63.2856 121.118C62.8295 121.099 61.5004 120.738 61.0062 120.985C60.5119 121.232 60.057 122.144 59.6955 122.107C59.3353 122.069 55.1181 120.206 55.1181 120.206L54.662 123.304V123.303Z" fill="#FFB27D"/>
<path d="M35.2889 94.293C35.2889 94.293 35.9357 116.362 40.7786 118.87C43.1688 120.108 53.9588 123.508 57.1985 124.089C57.1985 124.089 58.0702 123.529 58.1673 120.866C58.1673 120.866 47.0798 115.336 45.6941 112.845C43.631 109.136 48.7679 98.9721 46.0593 95.404C43.3507 91.8359 38.3393 89.8747 35.2889 94.293Z" fill="#A8D29F"/>
<path d="M38.6541 83.393C38.6541 83.393 38.5779 81.9682 39.4557 81.1513C39.4557 81.1513 39.1496 79.7215 39.7151 79.4865C40.2795 79.2515 40.3975 80.4524 40.6569 80.2641C40.9164 80.0759 42.0696 79.1802 42.5639 77.8612C43.0581 76.5422 47.5827 78.1393 48.1101 78.378C48.6376 78.6154 50.3318 77.7443 50.6613 77.0368C50.6613 77.0368 49.7195 76.2826 49.2966 75.7179C48.8724 75.1519 45.9069 71.3365 41.7635 72.4204C37.6201 73.5044 37.0557 75.4829 37.2906 77.1783C37.5254 78.8738 36.9574 82.8246 38.6541 83.393Z" fill="#233862"/>
<path d="M46.3494 136.418C40.068 136.418 33.8504 135.145 28.073 132.677L24.3231 131.075C20.9199 129.621 17.1379 132.12 17.1379 135.823V142.985C17.1379 143.682 17.7072 144.253 18.4043 144.253H46.3494C47.0453 144.253 47.6158 143.683 47.6158 142.985V137.685C47.6158 136.989 47.0466 136.418 46.3494 136.418Z" fill="#912F2F"/>
<path d="M155.585 141.931C149.698 142.942 143.986 143.163 139.64 142.821C135.249 142.476 132.684 141.12 132.419 139.572C132.178 138.17 133.804 136.563 137.12 134.925C133.942 136.495 132.402 138.263 132.62 139.538C132.863 140.953 135.425 141.954 139.648 142.287C143.978 142.626 149.597 142.258 155.468 141.251C161.339 140.242 166.758 138.715 170.728 136.949C174.6 135.227 176.68 133.428 176.438 132.013C176.181 130.514 173.417 129.072 169.226 128.249C164.459 127.313 158.836 127.628 153.296 128.579C142.894 130.365 138.821 132.315 135.367 134.476C138.835 132.306 142.767 129.846 153.206 128.053C158.768 127.099 164.469 127.09 169.258 128.031C173.538 128.872 176.367 130.385 176.641 131.978C176.907 133.526 174.836 135.364 170.812 137.153C166.829 138.925 161.473 140.92 155.586 141.931H155.585Z" fill="#C65447"/>
<path d="M224.141 122.629C224.141 122.629 223.801 125.948 223.426 126.576C223.052 127.203 221.457 129.21 220.779 129.604C220.1 129.997 221.193 126.961 221.055 126.369C220.916 125.778 220.496 127.448 220.197 127.486C219.898 127.526 219.975 126.023 219.965 125.476C219.954 124.93 221.42 123.579 221.938 122.415C222.454 121.251 224.143 122.627 224.143 122.627L224.141 122.629Z" fill="#FFB27D"/>
<path d="M183.391 92.0142L182.629 90.5747C182.629 90.5747 183.007 88.0093 179.796 86.3877C179.796 86.3877 178.622 85.9091 177.96 86.8675C177.35 87.7497 179.123 87.591 179.029 89.0995C178.934 90.6091 179.65 91.495 180.647 91.9859L181.47 92.9407L183.393 92.013L183.391 92.0142Z" fill="#FFB27D"/>
<path d="M213.741 88.5742C213.741 88.5742 210.983 102.119 195.806 106.545C191.069 107.927 180.306 92.3182 180.306 92.3182C180.306 92.3182 180.685 90.8799 183.055 91.2096C183.055 91.2096 193.534 98.1527 194.854 98.9069C196.024 99.5762 203.723 90.3041 207.232 88.8079C210.741 87.3118 213.74 88.5729 213.74 88.5729L213.741 88.5742Z" fill="#4A75CB"/>
<path d="M173.352 85.9061L172.922 88.7104L187.015 90.8761L187.445 88.0718L173.352 85.9061Z" fill="#C65447"/>
<path d="M169.865 86.8087L172.927 88.7133L173.357 85.9105L169.865 86.8087Z" fill="#FFB27D"/>
<path d="M188.946 89.2582L188.809 90.1441C188.726 90.6891 188.216 91.0632 187.671 90.9795L187.019 90.8798L187.45 88.0758L188.159 88.1853C188.673 88.264 189.025 88.7451 188.946 89.2582Z" fill="#FFB27D"/>
<path d="M231.86 173.727C231.86 173.727 233.742 175.445 233.376 176.667C233.008 177.889 231.309 178.704 231.08 180.196C230.851 181.69 229.932 182.504 229.106 182.504H225.165C225.165 182.504 224.557 181.453 226.026 181.137C227.495 180.821 228.05 179.065 227.958 177.437C227.865 175.808 228.095 173.637 228.095 173.637L231.218 172.913L231.861 173.728L231.86 173.727Z" fill="#233862"/>
<path d="M208.762 178.174C208.762 178.174 209.1 182.087 208.273 182.494L197.695 182.472C197.695 182.472 197.695 181.25 199.394 180.979C201.093 180.707 204.078 179.711 204.582 177.494C205.088 175.277 208.762 178.173 208.762 178.173V178.174Z" fill="#233862"/>
<path d="M199.831 122.898C199.831 122.898 200.389 129.758 201.044 138.002C201.935 149.203 203.008 162.961 203.113 165.567C203.296 170.092 204.032 177.332 204.032 177.332C204.032 177.332 205.776 179.052 209.267 178.327C209.267 178.327 212.377 167.993 213.266 157.059C213.28 156.879 213.293 156.699 213.308 156.518C214.134 145.387 215.42 121.948 215.42 121.948L199.832 122.898H199.831Z" fill="#2B478B"/>
<path d="M199.831 122.898C199.831 122.898 200.389 129.758 201.044 138.002L213.266 157.059C213.28 156.879 213.293 156.699 213.308 156.518C214.134 145.387 215.42 121.948 215.42 121.948L199.832 122.898H199.831Z" fill="#233862"/>
<path d="M202.379 123.713C202.379 123.713 212.437 148.554 219.049 160.228C225.661 171.902 227.728 175.16 227.728 175.16C227.728 175.16 231.516 173.666 231.86 172.649C231.86 172.649 229.331 150.112 224.904 144.617C222.402 141.513 219.462 132.196 219.324 128.938C219.186 125.68 218.429 119.233 218.429 119.233L202.379 123.713Z" fill="#2B478B"/>
<path d="M215.61 85.4305C215.61 85.4305 208.806 88.7156 204.883 87.4963C204.883 87.4963 205.848 86.277 207.538 85.3702C207.403 84.5828 207.297 83.8987 207.237 83.3192C207.071 81.9805 207.071 81.2226 207.071 81.2226L209.696 79.1568L212.186 77.1796C211.989 82.7397 215.611 85.4305 215.611 85.4305H215.61Z" fill="#FFB27D"/>
<path d="M219.196 120.505C219.211 120.921 218.321 121.397 217.929 121.575C215.017 122.854 212.301 123.746 209.224 124.044C205.588 124.415 201.287 123.597 199.81 123.628C199.658 123.628 199.523 123.569 199.403 123.464C199.297 123.389 199.222 119.004 199.297 113.488C199.297 113.265 199.297 113.042 199.312 112.819V112.745C199.342 110.589 199.417 108.329 199.523 106.07C199.735 101.104 200.127 96.3169 200.791 93.6716C201.59 90.5501 203.401 88.4831 205.045 86.982L206.402 85.7922C207.76 86.0604 209.193 85.9854 210.627 85.2865C212.196 84.5286 213.885 83.7104 214.157 83.9183C216.209 85.4194 217.597 88.7943 218.336 93.1056C218.759 95.5885 218.97 98.368 218.954 101.283C218.954 102.353 218.923 103.453 218.863 104.538C218.502 110.426 218.863 115.539 219.075 118.498C219.135 119.361 219.18 120.03 219.195 120.505H219.196Z" fill="#699DEE"/>
<path d="M219.076 120.234C195.248 120.186 214.682 94.3606 214.682 94.3606L218.542 93.1056C218.847 95.7583 219.001 98.7284 218.99 101.841C218.99 102.986 218.968 104.161 218.925 105.32C218.663 111.609 218.925 117.073 219.077 120.234H219.076Z" fill="#4A75CB"/>
<path d="M212.23 79.3044C212.23 79.3044 210.51 82.4406 207.236 83.3179C207.07 81.9792 207.07 81.2213 207.07 81.2213L209.695 79.1555L212.23 79.3044Z" fill="#ED985F"/>
<path d="M205.873 81.1315C205.873 81.1315 212.365 82.1946 212.974 78.2007C213.584 74.2069 214.832 71.6551 210.713 70.8073C206.594 69.9596 205.554 71.3647 205.021 72.648C204.489 73.9325 204.2 80.7513 205.872 81.1303L205.873 81.1315Z" fill="#FFB27D"/>
<path d="M215.333 70.33C215.392 70.2623 215.527 70.2082 215.83 70.191C215.83 70.191 215.588 70.0396 215.266 70.0322C215.202 69.6115 214.979 68.8658 214.255 68.685C214.255 68.685 214.643 68.8929 214.695 69.3395C213.857 68.4783 212.06 67.8508 207.086 68.2433C200.53 68.7613 202.69 72.9618 203.539 73.4626C204.387 73.9633 206.524 72.5902 208.105 72.7157C209.686 72.8412 209.987 75.1285 210.523 75.4422C211.06 75.756 210.849 75.2011 211.575 74.8726C212.3 74.5441 212.37 75.7474 212.16 76.5299C211.95 77.3124 212.948 78.3447 212.948 78.3447L213.956 77.2583C214.964 76.1719 215.914 71.5715 215.456 70.5908C215.416 70.5035 215.376 70.4161 215.334 70.3288L215.333 70.33Z" fill="#2C3A64"/>
<path d="M214.154 83.8851C214.154 83.8851 218.261 85.8316 220.23 88.8239C223.284 93.4649 226.825 110.379 226.89 111.945C226.956 113.512 224.306 124.569 224.306 124.569C224.306 124.569 221.618 124.392 220.925 123.035C220.925 123.035 221.462 111.673 221.122 110.943C220.781 110.212 209.919 95.7018 211.139 92.6049C212.362 89.508 214.153 83.8839 214.153 83.8839L214.154 83.8851Z" fill="#699DEE"/>
<path d="M182.615 90.5071C182.615 90.5071 182.839 89.6249 182.227 89.2275C181.614 88.8301 181.051 87.7511 180.793 87.8975C180.258 88.2001 181.086 89.1426 180.934 90.3164C180.882 90.7274 181.838 91.8052 182.615 90.5071Z" fill="#FFB27D"/>
<path d="M0.245898 183H275.754C275.889 183 276 182.857 276 182.683C276 182.508 275.889 182.365 275.754 182.365H0.245898C0.110654 182.365 0 182.508 0 182.683C0 182.857 0.110654 183 0.245898 183Z" fill="#283250"/>
</g>
<defs>
<clipPath id="clip0_838_4892">
<rect width="276" height="183" fill="white"/>
</clipPath>
</defs>
</svg>
