<svg width="213" height="189" viewBox="0 0 213 189" fill="none" xmlns="http://www.w3.org/2000/svg">
<rect x="2.22607" y="186.259" width="261.129" height="0.870429" fill="#C4C4C4" stroke="#F4BB53" stroke-width="3.57009"/>
<path d="M138.366 19.7201C109.091 45.0629 102.709 19.7201 82.9332 19.7201C62.1638 19.7201 60.4884 21.804 28.2125 61.949L27.8635 62.3831C-16.2413 136.529 20.0793 186.253 52.6604 186.253H217.973C263.073 186.253 263.153 122.111 251.918 99.3577C239.219 73.6375 247.344 49.4371 229.208 29.5277C201.974 -0.369401 174.96 -11.9584 138.366 19.7201Z" fill="#F4BB53"/>
<path fill-rule="evenodd" clip-rule="evenodd" d="M146.938 75.2757C146.938 75.8725 146.891 76.4569 146.803 77.0248C146.27 80.3913 144.22 83.2845 141.333 85.0625H127.915C127.429 84.762 126.967 84.4328 126.527 84.0706C125.584 83.2887 124.765 82.3709 124.103 81.3503C123.57 80.523 123.142 79.63 122.838 78.6834C122.75 78.4035 122.668 78.1237 122.603 77.8397C122.533 77.5557 122.48 77.2718 122.434 76.9796C122.346 76.424 122.305 75.8519 122.305 75.2716C122.305 74.3662 122.416 73.4855 122.621 72.6377H146.628C146.78 73.2674 146.879 73.9176 146.92 74.5802C146.932 74.8107 146.938 75.0412 146.938 75.2757Z" fill="#F67459"/>
<path fill-rule="evenodd" clip-rule="evenodd" d="M146.936 75.2714C146.936 75.8682 146.889 76.4526 146.801 77.0205C146.268 80.387 144.219 83.2802 141.331 85.0581H127.908C127.422 84.7577 126.959 84.4284 126.52 84.0663C125.577 83.2843 124.757 82.3666 124.095 81.35C124.036 81.2636 123.937 81.1689 123.808 81.0784C123.855 81.0949 123.908 81.1113 123.954 81.1237C127.275 82.1608 131.551 82.6258 135.287 81.8274C141.7 80.457 142.262 76.4855 141.033 72.6416H146.62C146.772 73.2713 146.872 73.9215 146.913 74.5841C146.93 74.8105 146.936 75.041 146.936 75.2714Z" fill="#F67459"/>
<path fill-rule="evenodd" clip-rule="evenodd" d="M146.402 72.6409C146.402 72.6409 145.196 73.0648 142.285 73.3941C141.483 73.4846 140.552 73.5669 139.48 73.6328C138.098 73.7151 136.487 73.7686 134.619 73.7686C132.856 73.7686 131.316 73.7192 129.986 73.6451C129.775 73.6328 129.576 73.6204 129.377 73.6081C124.698 73.2953 122.829 72.6409 122.829 72.6409C136.762 72.2623 146.402 72.6409 146.402 72.6409Z" fill="#1B1A60"/>
<path d="M117.809 64.1872C125.892 63.7921 135.104 68.1505 135.104 68.1505C135.104 68.1505 127.022 64.9815 130.026 64.1872C133.037 63.3929 141.072 64.8663 141.072 64.8663L142.431 66.9611L136.416 71.4511L130.776 71.5828L117.809 64.1872Z" fill="url(#paint0_linear_1848_7226)"/>
<path d="M130.969 72.1136C130.969 72.6404 121.007 77.0028 115.367 76.0768C114.682 75.9616 114.348 75.5953 114.301 75.0809C114.143 73.3729 117.112 70.0805 120.439 69.4714C122.372 69.1175 124.685 69.5044 126.647 70.0846C129.078 70.8049 130.969 71.8255 130.969 72.1136Z" fill="url(#paint1_linear_1848_7226)"/>
<path opacity="0.5" d="M118.369 69.2051C123.635 68.2792 131.658 72.9503 131.658 72.9503L132.279 72.1107L122.504 68.1475L118.369 69.2051Z" fill="url(#paint2_linear_1848_7226)"/>
<path d="M157.284 70.1303C157.284 70.7641 146.092 73.5709 140.68 72.0729C140.44 72.007 140.206 71.9288 139.989 71.8465C134.912 69.8669 140.177 67.0931 140.177 67.0931H142.994C146.742 66.8832 149.547 67.0437 151.632 67.3853C156.148 68.1178 157.284 69.6817 157.284 70.1303Z" fill="url(#paint3_linear_1848_7226)"/>
<path d="M127.246 64.1903C131.575 61.7251 141.074 64.8611 141.074 64.8611C141.074 64.8611 130.655 66.388 128.822 65.425C126.995 64.4619 127.246 64.1903 127.246 64.1903Z" fill="url(#paint4_linear_1848_7226)"/>
<path opacity="0.4" d="M121.834 68.377C121.91 68.665 121.641 68.9696 121.12 69.2742L121.834 68.377Z" fill="url(#paint5_linear_1848_7226)"/>
<path opacity="0.4" d="M120.693 67.3819C120.412 67.3161 120.043 67.2173 119.563 67.0856C119.388 67.0362 119.212 66.995 119.037 66.958C119.651 67.0609 120.225 67.1967 120.693 67.3819Z" fill="url(#paint6_linear_1848_7226)"/>
<path d="M153.011 72.792C153.028 73.2735 152.771 73.6316 152.337 73.8826C150.627 74.8786 146.205 74.2201 145.262 73.1336C144.653 72.4299 144.472 71.9113 144.513 71.5368C144.589 70.7466 145.614 70.5696 145.614 70.5696C145.614 70.5696 145.321 69.9112 145.977 69.3062C146.035 69.2486 146.106 69.1951 146.182 69.1416C146.598 68.8494 148.044 69.0839 149.497 69.656C151.225 70.3351 152.97 71.4874 153.011 72.792Z" fill="url(#paint7_linear_1848_7226)"/>
<path opacity="0.5" d="M151.301 72.3782C151.026 72.1601 145.468 70.0283 144.507 71.5304C144.583 70.7402 145.608 70.5633 145.608 70.5633C145.608 70.5633 145.315 69.9048 145.971 69.2998C145.755 70.555 150.282 71.5551 151.301 72.3782Z" fill="url(#paint8_linear_1848_7226)"/>
<path opacity="0.4" d="M151.6 72.4733C151.559 72.461 151.477 72.4365 151.349 72.3955C151.477 72.4365 151.565 72.461 151.6 72.4733Z" fill="url(#paint9_linear_1848_7226)"/>
<path opacity="0.5" d="M152.736 72.6739C152.747 73.1307 152.507 73.4682 152.097 73.7069C152.449 72.8426 152.402 71.3487 149.415 69.7148C151.049 70.3569 152.7 71.4475 152.736 72.6739Z" fill="url(#paint10_linear_1848_7226)"/>
<path d="M140.743 64.1862C139.238 64.0545 138.488 64.9805 137.358 64.3179C137.358 64.3179 135.853 63.6595 135.103 62.7335C135.015 62.6306 134.968 62.5359 134.951 62.4495C134.804 61.7787 136.421 61.5935 136.784 60.9103C136.79 60.9021 136.796 60.8938 136.796 60.8856C137.059 60.3341 138.605 59.972 140.351 60.3012C140.567 61.2437 140.433 61.7622 140.31 62.0133L141.294 60.5481C141.745 60.6963 142.19 60.8938 142.623 61.1531C145.065 62.5977 142.248 64.3179 140.743 64.1862Z" fill="url(#paint11_linear_1848_7226)"/>
<path opacity="0.5" d="M140.171 62.5926C140.148 62.5762 140.084 62.5312 139.979 62.4658C140.101 62.5231 140.159 62.5762 140.171 62.5926Z" fill="url(#paint12_linear_1848_7226)"/>
<path d="M139.005 62.9246C139.321 63.1098 139.538 62.8505 139.959 62.8876C140.387 62.9246 141.183 62.439 140.492 62.0274C139.801 61.6159 138.952 61.727 138.847 61.9533C138.741 62.1756 138.156 62.2126 138.366 62.476C138.583 62.7394 139.005 62.9246 139.005 62.9246Z" fill="#FFF764"/>
<path d="M140.306 62.0127C140.248 62.1403 140.183 62.1939 140.177 62.2021L140.306 62.0127Z" fill="#FFF764"/>
<path opacity="0.4" d="M151.638 67.3839C143.984 69.2153 141.454 71.2155 140.68 72.0756C140.44 72.0098 140.206 71.9316 139.989 71.8493C134.912 69.8697 140.177 67.0958 140.177 67.0958H142.994C146.748 66.8818 149.553 67.0423 151.638 67.3839Z" fill="url(#paint13_linear_1848_7226)"/>
<path opacity="0.4" d="M142.194 65.4007C142.363 65.3143 142.574 65.199 142.832 65.055C142.92 65.0056 143.014 64.9562 143.113 64.915C142.738 65.0591 142.41 65.2237 142.194 65.4007Z" fill="url(#paint14_linear_1848_7226)"/>
<path d="M139.181 68.2157C145.576 68.5819 155.228 66.0674 153.975 65.5077C152.903 65.0261 147 63.5116 145.02 64.0261C144.575 64.1413 144.212 64.3471 143.972 64.6969C143.972 64.6969 142.783 64.8862 141.424 65.2196C140.803 65.3719 140.13 65.5612 139.503 65.7793C138.911 65.9851 138.361 66.2196 137.945 66.4789C137.359 66.8411 137.037 67.2444 137.242 67.6683C137.242 67.6683 137.242 67.6683 137.242 67.6724C137.395 67.977 138.097 68.1498 139.181 68.2157Z" fill="url(#paint15_linear_1848_7226)"/>
<path opacity="0.4" d="M151.58 65.3235C151.522 65.3154 151.434 65.3032 151.322 65.291C151.434 65.3073 151.522 65.3154 151.58 65.3235Z" fill="url(#paint16_linear_1848_7226)"/>
<path opacity="0.5" d="M141.426 65.222C144.794 64.5471 149.883 65.115 151.295 65.2879C149.86 65.0986 144.852 64.4113 145.016 64.0244C144.571 64.1396 144.208 64.3454 143.968 64.6952C143.968 64.6994 142.779 64.8846 141.426 65.222Z" fill="url(#paint17_linear_1848_7226)"/>
<path d="M139.089 68.2979C138.111 68.2114 137.625 68.8123 136.893 68.3843C136.893 68.3843 135.915 67.9563 135.429 67.3554C135.37 67.2896 135.341 67.2237 135.329 67.1702C135.235 66.734 136.284 66.6146 136.518 66.1701C136.518 66.166 136.524 66.1578 136.524 66.1537C136.694 65.7956 137.701 65.561 138.831 65.775C138.972 66.3883 138.884 66.7257 138.802 66.8862L139.441 65.9355C139.733 66.0302 140.026 66.1619 140.307 66.3265C141.9 67.269 140.067 68.3843 139.089 68.2979Z" fill="url(#paint18_linear_1848_7226)"/>
<path opacity="0.5" d="M138.722 67.2683C138.71 67.26 138.663 67.2269 138.598 67.1855C138.675 67.2269 138.71 67.26 138.722 67.2683Z" fill="url(#paint19_linear_1848_7226)"/>
<path d="M137.956 67.4813C138.161 67.6007 138.302 67.4319 138.577 67.4566C138.852 67.4813 139.374 67.1644 138.923 66.8969C138.472 66.6294 137.921 66.7035 137.851 66.8475C137.781 66.9916 137.4 67.0163 137.54 67.185C137.681 67.3579 137.956 67.4813 137.956 67.4813Z" fill="#FFF764"/>
<path d="M138.81 66.8906C138.769 66.9735 138.733 67.0108 138.728 67.0149L138.81 66.8906Z" fill="#FFF764"/>
<path d="M141.349 78.0109C140.078 78.3278 138.725 78.3072 137.378 78.0561C132.066 77.0602 126.959 72.459 128.399 70.8869C129.337 69.8704 130.443 69.3765 131.509 69.179C133.741 68.7592 135.808 69.6193 135.808 69.6193C135.808 69.6193 137.114 68.9279 139.744 69.1707C139.984 69.1913 140.242 69.2242 140.505 69.2613C141.94 69.4753 143.545 70.9898 144.271 72.7224C145.15 74.7843 144.769 77.1548 141.349 78.0109Z" fill="url(#paint20_linear_1848_7226)"/>
<path opacity="0.5" d="M139.792 76.1385C139.956 75.7434 137.021 69.1421 131.516 69.175C133.748 68.7552 135.815 69.6154 135.815 69.6154C135.815 69.6154 137.121 68.924 139.751 69.1668C136.073 69.7388 140.412 74.6528 139.792 76.1385Z" fill="url(#paint21_linear_1848_7226)"/>
<path opacity="0.4" d="M140.014 76.4842C139.984 76.443 139.92 76.3442 139.832 76.2002C139.926 76.3442 139.99 76.443 140.014 76.4842Z" fill="url(#paint22_linear_1848_7226)"/>
<path opacity="0.5" d="M141.232 77.6761C140.031 77.9766 138.754 77.956 137.484 77.7173C140.342 77.5115 144.266 76.5279 144.002 72.6758C144.822 74.6307 144.459 76.8695 141.232 77.6761Z" fill="url(#paint23_linear_1848_7226)"/>
<path d="M125.368 69.3983C122.112 71.2956 109.045 73.2381 108.454 72.1969C107.874 71.1762 109.824 65.6244 114.72 66.0072C115.622 66.0771 116.624 66.3488 117.731 66.8838C117.731 66.8838 119.3 66.785 121.087 66.8673C121.819 66.9002 122.58 66.9661 123.289 67.0772C123.91 67.176 124.478 67.3118 124.946 67.497C125.544 67.7357 125.971 68.0567 126.088 68.4888C126.088 68.4888 126.088 68.4888 126.088 68.4929C126.159 68.7934 125.895 69.0938 125.368 69.3983Z" fill="url(#paint24_linear_1848_7226)"/>
<path opacity="0.4" d="M110.841 70.8624C110.882 70.8254 110.952 70.7719 111.046 70.7061C110.958 70.776 110.887 70.8254 110.841 70.8624Z" fill="url(#paint25_linear_1848_7226)"/>
<path opacity="0.5" d="M121.077 66.877C116.474 66.9305 112.21 69.8484 111.068 70.692C112.193 69.8196 116.046 66.7082 114.717 66.0127C115.619 66.0827 116.62 66.3543 117.727 66.8893C117.721 66.8893 119.297 66.7946 121.077 66.877Z" fill="url(#paint26_linear_1848_7226)"/>
<rect x="79.3544" y="35.6572" width="121.032" height="82.6346" rx="14.2804" fill="white"/>
<mask id="mask0_1848_7226" style="mask-type:alpha" maskUnits="userSpaceOnUse" x="79" y="35" width="122" height="84">
<rect x="79.3541" y="35.6523" width="121.032" height="82.6346" rx="14.2804" fill="white"/>
</mask>
<g mask="url(#mask0_1848_7226)">
<circle cx="205.785" cy="34.1962" r="24.9268" stroke="black" stroke-opacity="0.02" stroke-width="35.7009"/>
<circle cx="74.0999" cy="122.817" r="24.9268" stroke="black" stroke-opacity="0.02" stroke-width="35.7009"/>
</g>
<rect x="133.447" y="74.9941" width="55.2208" height="34.0402" rx="7.14019" fill="#E6F4F1"/>
<rect opacity="0.54" x="139.492" y="93.1523" width="3.0258" height="10.9685" rx="1.5129" fill="url(#paint27_linear_1848_7226)"/>
<rect opacity="0.54" x="170.126" y="86.3418" width="3.0258" height="17.7766" rx="1.5129" fill="url(#paint28_linear_1848_7226)"/>
<rect opacity="0.54" x="149.703" y="88.6084" width="3.0258" height="15.5072" rx="1.5129" fill="url(#paint29_linear_1848_7226)"/>
<rect opacity="0.54" x="180.337" y="93.1523" width="3.0258" height="10.9685" rx="1.5129" fill="url(#paint30_linear_1848_7226)"/>
<rect opacity="0.54" x="159.919" y="88.6084" width="3.0258" height="15.5072" rx="1.5129" fill="url(#paint31_linear_1848_7226)"/>
<rect x="136.842" y="78.7812" width="6.0516" height="1.5129" rx="0.75645" fill="#D9E4F3"/>
<rect x="147.432" y="78.7812" width="6.0516" height="1.5129" rx="0.75645" fill="#D9E4F3"/>
<rect x="158.02" y="78.7812" width="6.0516" height="1.5129" rx="0.75645" fill="#D9E4F3"/>
<rect x="168.614" y="78.7812" width="6.0516" height="1.5129" rx="0.75645" fill="#D9E4F3"/>
<rect x="179.204" y="78.7812" width="6.0516" height="1.5129" rx="0.75645" fill="#D9E4F3"/>
<rect x="141.187" y="51.0322" width="45.7652" height="24.2064" rx="7.14019" transform="rotate(-9.71309 141.187 51.0322)" fill="#E6F4F1"/>
<path d="M150.657 70.5193C150.657 70.5193 154.227 59.4002 158.223 58.6719C162.277 57.933 163.548 63.6049 167.664 63.3874C174.08 63.0482 179.288 48.351 179.288 48.351" stroke="#6C95FF" stroke-width="2.67757" stroke-linecap="round"/>
<g filter="url(#filter0_d_1848_7226)">
<circle cx="157.662" cy="58.7721" r="1.5129" transform="rotate(-9.71309 157.662 58.7721)" fill="white"/>
</g>
<g filter="url(#filter1_d_1848_7226)">
<circle cx="177.718" cy="52.652" r="1.5129" transform="rotate(-9.71309 177.718 52.652)" fill="white"/>
</g>
<path d="M198.038 39.7329L188.193 41.2026C189.301 47.0595 193.43 49.0187 195.356 49.2662L198.038 39.7329Z" fill="#E4C6C7"/>
<path d="M197.749 37.7618L187.795 37.8134C188.057 43.7685 191.865 46.2961 193.735 46.8156L197.749 37.7618Z" fill="#F27559"/>
<mask id="mask1_1848_7226" style="mask-type:alpha" maskUnits="userSpaceOnUse" x="187" y="37" width="11" height="10">
<path d="M197.749 37.7648L187.795 37.8164C188.057 43.7715 191.864 46.2991 193.735 46.8186L197.749 37.7648Z" fill="#F27559"/>
</mask>
<g mask="url(#mask1_1848_7226)">
<path d="M192.961 37.852L193.646 36.7022L193.431 36.5735L193.183 36.5318L192.961 37.852ZM195.746 40.461L197.079 40.581L195.746 40.461ZM189.555 38.3398L189.887 37.0427L189.81 37.0231L189.732 37.0127L189.555 38.3398ZM187.794 38.5161L188.861 39.3237L189.234 38.8307L189.101 38.2273L187.794 38.5161ZM190.139 41.9857L190.351 40.6638L190.308 40.6568L190.264 40.6527L190.139 41.9857ZM193.932 45.0289L193.747 46.3548L193.932 45.0289ZM189.865 44.3123L189.111 45.4183L189.316 45.5582L189.557 45.6152L189.865 44.3123ZM192.275 39.0019C192.713 39.2628 193.361 39.6943 193.875 40.1255C194.135 40.3443 194.317 40.5264 194.419 40.6559C194.575 40.8555 194.379 40.7115 194.412 40.341L197.079 40.581C197.145 39.8505 196.736 39.2716 196.525 39.0035C196.26 38.6654 195.921 38.3471 195.596 38.0748C194.94 37.5239 194.164 37.0109 193.646 36.7022L192.275 39.0019ZM194.412 40.341C194.401 40.47 194.381 40.4917 194.4 40.4516C194.424 40.4005 194.511 40.2535 194.711 40.1492C194.912 40.0442 195.082 40.0582 195.134 40.0674C195.172 40.0743 195.13 40.0739 194.993 39.9936L193.638 42.3025C194.174 42.6173 195.068 42.9834 195.95 42.5227C196.824 42.0661 197.029 41.1391 197.079 40.581L194.412 40.341ZM194.993 39.9936C194.88 39.9268 194.713 39.7987 194.406 39.5467C194.126 39.3179 193.765 39.0169 193.347 38.7119C192.497 38.0919 191.373 37.4225 189.887 37.0427L189.224 39.6369C190.278 39.9064 191.094 40.3826 191.769 40.875C192.113 41.1263 192.41 41.3733 192.709 41.6181C192.98 41.8397 193.311 42.1106 193.638 42.3025L194.993 39.9936ZM189.732 37.0127C188.941 36.9074 188.321 36.8938 187.847 36.9875C187.618 37.0326 187.294 37.1266 187.005 37.36C186.68 37.6228 186.34 38.1418 186.486 38.8049L189.101 38.2273C189.158 38.4879 189.13 38.7541 189.03 38.9874C188.934 39.2104 188.794 39.3568 188.689 39.4424C188.584 39.5273 188.491 39.57 188.443 39.5892C188.417 39.5996 188.397 39.6059 188.385 39.6095C188.378 39.6113 188.374 39.6125 188.37 39.6132C188.367 39.6139 188.366 39.6143 188.366 39.6143C188.366 39.6143 188.367 39.614 188.37 39.6135C188.373 39.6131 188.377 39.6124 188.383 39.6117C188.394 39.6102 188.411 39.6084 188.433 39.6068C188.479 39.6036 188.542 39.6013 188.628 39.6027C188.801 39.6054 189.045 39.6225 189.379 39.6668L189.732 37.0127ZM186.726 37.7085C186.252 38.3344 185.597 39.5786 186.009 40.899C186.476 42.3925 187.991 43.1291 190.014 43.3186L190.264 40.6527C189.448 40.5763 188.998 40.4128 188.769 40.2804C188.66 40.2174 188.611 40.1668 188.59 40.1426C188.572 40.1203 188.567 40.1076 188.565 40.1006C188.559 40.082 188.543 39.9997 188.595 39.8288C188.647 39.6588 188.747 39.4754 188.861 39.3237L186.726 37.7085ZM189.927 43.3075C193.601 43.8976 193.671 43.8183 194.807 44.1906L195.641 41.6463C194.238 41.1862 193.772 41.2132 190.351 40.6638L189.927 43.3075ZM194.807 44.1906C194.825 44.1967 194.644 44.1166 194.727 43.8564C194.772 43.7132 194.865 43.6708 194.841 43.681C194.796 43.7009 194.587 43.7687 194.117 43.703L193.747 46.3548C195.286 46.57 196.82 46.1095 197.278 44.6682C197.692 43.3685 196.891 42.0563 195.641 41.6463L194.807 44.1906ZM194.117 43.703C192.128 43.425 190.639 43.1194 190.173 43.0093L189.557 45.6152C190.116 45.7472 191.688 46.0671 193.747 46.3548L194.117 43.703ZM190.619 43.2063C189.526 42.4607 188.383 41.5766 187.488 40.7177C187.04 40.288 186.677 39.8855 186.416 39.5285C186.144 39.1557 186.043 38.9126 186.017 38.7967C186.003 38.7326 186.033 38.856 185.934 38.9702C185.893 39.018 185.972 38.894 186.477 38.791C187.488 38.5849 189.423 38.6142 192.739 39.1722L193.183 36.5318C189.825 35.9667 187.47 35.8557 185.942 36.1675C185.177 36.3235 184.424 36.6231 183.909 37.2184C183.337 37.8801 183.251 38.675 183.401 39.3657C183.54 40.0046 183.883 40.5998 184.254 41.108C184.637 41.632 185.117 42.1533 185.634 42.6495C186.669 43.6425 187.939 44.6191 189.111 45.4183L190.619 43.2063Z" fill="white"/>
</g>
<path opacity="0.24" d="M200.322 29.8163C198.895 29.6044 197.876 28.242 198.525 26.954C198.865 26.279 199.299 25.6506 199.817 25.0887C200.929 23.882 202.379 23.0376 203.978 22.6655C205.576 22.2934 207.25 22.4106 208.781 23.002C210.312 23.5934 211.63 24.6316 212.563 25.9818C213.497 27.3319 214.002 28.9315 214.015 30.5728C214.027 32.2141 213.546 33.8213 212.633 35.1854C211.72 36.5496 210.418 37.6076 208.896 38.2222C208.188 38.5084 207.447 38.6922 206.695 38.7719C205.261 38.9239 204.346 37.4891 204.652 36.0797L204.831 35.2557C205.038 34.3014 206.036 33.7453 206.941 33.3797C207.492 33.1574 207.963 32.7746 208.293 32.2811C208.623 31.7876 208.797 31.2062 208.793 30.6125C208.788 30.0187 208.605 29.44 208.268 28.9516C207.93 28.4632 207.453 28.0876 206.899 27.8737C206.345 27.6597 205.74 27.6173 205.162 27.7519C204.583 27.8866 204.059 28.192 203.656 28.6286C202.994 29.3465 202.122 30.0837 201.156 29.9402L200.322 29.8163Z" fill="url(#paint32_linear_1848_7226)"/>
<rect x="90.3263" y="47.001" width="47.6563" height="24.2064" rx="7.14019" fill="#E6F4F1"/>
<path d="M105.452 59.3007C106.334 59.4899 108.137 60.2085 108.288 61.5701C108.478 63.2721 112.26 64.5959 112.638 60.2463C113.016 55.8967 115.847 50.7729 117.555 56.2749C119.257 61.7592 119.635 61.1919 121.148 59.679C121.905 58.9225 123.682 57.977 124.741 60.2463C126.254 62.0618 126.632 62.5787 127.2 62.8939" stroke="#6C95FF" stroke-width="2.67757" stroke-linecap="round"/>
<g filter="url(#filter2_d_1848_7226)">
<circle cx="128.143" cy="63.2704" r="1.13467" fill="#E9EAFF"/>
</g>
<rect x="99.3983" y="51.9229" width="3.78225" height="1.13467" rx="0.567337" fill="#D5DEFF"/>
<rect x="99.3983" y="55.3232" width="3.78225" height="1.13467" rx="0.567337" fill="#D5DEFF"/>
<rect x="99.3983" y="58.7334" width="3.78225" height="1.13467" rx="0.567337" fill="#D5DEFF"/>
<rect x="99.3983" y="62.1338" width="3.78225" height="1.13467" rx="0.567337" fill="#D5DEFF"/>
<rect x="99.3983" y="65.5352" width="3.78225" height="1.13467" rx="0.567337" fill="#D5DEFF"/>
<path d="M80.8926 90.5415C80.5361 90.7587 80.5976 91.0469 80.6729 91.1639C80.7831 91.367 81.0573 91.7944 81.273 91.8788C81.2863 91.884 81.2995 91.8887 81.3127 91.8929C81.6409 91.9978 82.0125 92.0378 82.3022 92.2243C82.5142 92.3608 82.7285 92.26 82.8092 92.1926C82.9872 92.0676 83.4097 91.781 83.6754 91.6347C83.9029 91.5094 83.9677 91.2856 83.9745 91.1474C83.9765 91.1064 83.9719 91.0804 83.9597 91.0413C83.8804 90.7868 84.0034 90.4927 84.0579 90.2317C84.1008 90.0263 84.0399 89.8162 83.981 89.7004L83.6773 89.2289C83.5135 88.9745 83.2072 89.0611 83.0746 89.1362C82.4958 89.5141 81.2491 90.3243 80.8926 90.5415Z" fill="url(#paint33_linear_1848_7226)"/>
<path d="M77.6297 88.7039C78.6285 88.8673 79.3478 89.4124 79.5825 89.6645C80.0106 90.2328 80.4465 90.163 80.611 90.057C81.2005 89.6877 82.4052 88.9263 82.5079 88.8353C82.6363 88.7216 83.1456 88.5488 82.8739 87.886C82.6022 87.2233 82.7347 87.3086 82.6169 86.9812C82.5226 86.7192 82.6544 85.6746 82.7321 85.185C82.7649 85.0191 82.7575 84.4922 82.466 83.712C81.7265 82.2025 81.0796 81.7039 79.6789 81.2874C78.2782 80.8709 76.4216 81.6013 75.6078 82.9631C74.794 84.325 74.9291 85.6186 75.2526 86.4341C75.5761 87.2496 76.3905 88.3695 77.6297 88.7039Z" fill="url(#paint34_linear_1848_7226)"/>
<path d="M80.7797 82.75L80.3521 83.0254L80.723 83.3605L80.9757 82.934L80.7797 82.75Z" fill="white"/>
<path d="M80.1258 82.3942L79.835 82.8115L80.3054 82.9805L80.3771 82.4899L80.1258 82.3942Z" fill="white"/>
<path d="M79.3669 82.3322L79.238 82.8242L79.7379 82.8203L79.6358 82.3352L79.3669 82.3322Z" fill="white"/>
<path d="M78.623 82.6158L78.7706 83.1025L79.1946 82.8377L78.8537 82.4777L78.623 82.6158Z" fill="white"/>
<path d="M78.05 83.1433L78.3478 83.5557L78.6627 83.1674L78.2233 82.9377L78.05 83.1433Z" fill="white"/>
<path d="M77.7381 83.8642L78.1854 84.1064L78.3005 83.62L77.805 83.6038L77.7381 83.8642Z" fill="white"/>
<path d="M77.803 84.6391L78.311 84.665L78.2054 84.1765L77.7512 84.3753L77.803 84.6391Z" fill="white"/>
<path d="M78.0897 85.3477L78.5873 85.2422L78.3596 84.7972L77.9718 85.1061L78.0897 85.3477Z" fill="white"/>
<path d="M78.7301 85.8705L79.1281 85.5537L78.7255 85.2574L78.5166 85.707L78.7301 85.8705Z" fill="white"/>
<path d="M79.5186 86.0232L79.6804 85.541L79.1814 85.5112L79.2506 86.0021L79.5186 86.0232Z" fill="white"/>
<path d="M80.276 85.9245L80.2617 85.416L79.783 85.5599L80.0171 85.997L80.276 85.9245Z" fill="white"/>
<path d="M80.9087 85.4774L80.6976 85.0146L80.3127 85.3336L80.6984 85.645L80.9087 85.4774Z" fill="white"/>
<path d="M81.3478 84.8395L80.9647 84.5049L80.7454 84.9541L81.2253 85.0789L81.3478 84.8395Z" fill="white"/>
<path d="M81.4477 84.0973L80.9608 83.9502L80.9461 84.4499L81.4347 84.3659L81.4477 84.0973Z" fill="white"/>
<path d="M81.2897 83.3389L80.7867 83.415L80.9879 83.8726L81.3932 83.5871L81.2897 83.3389Z" fill="white"/>
<path fill-rule="evenodd" clip-rule="evenodd" d="M80.4184 85.4819C81.1329 85.0217 81.3391 84.0694 80.8789 83.3548C80.4187 82.6402 79.4663 82.434 78.7517 82.8942C78.0372 83.3545 77.831 84.3068 78.2912 85.0214C78.7514 85.736 79.7038 85.9422 80.4184 85.4819ZM80.004 84.8452C80.3673 84.6112 80.4722 84.1269 80.2382 83.7636C80.0041 83.4002 79.5199 83.2954 79.1566 83.5294C78.7932 83.7634 78.6884 84.2477 78.9224 84.611C79.1564 84.9744 79.6406 85.0792 80.004 84.8452Z" fill="white"/>
<path d="M79.3978 86.02L79.2026 86.2959L79.5144 86.4103L79.5643 86.0847L79.3978 86.02Z" fill="white"/>
<path d="M78.9039 85.9626L78.8282 86.292L79.1601 86.2793L79.0825 85.9592L78.9039 85.9626Z" fill="white"/>
<path d="M78.4241 86.1091L78.4669 86.4443L78.774 86.3178L78.5906 86.0442L78.4241 86.1091Z" fill="white"/>
<path d="M78.0351 86.4711L78.2469 86.7344L78.4424 86.4659L78.143 86.3287L78.0351 86.4711Z" fill="white"/>
<path d="M77.8105 86.9321L78.0964 87.1123L78.1941 86.7949L77.8663 86.7624L77.8105 86.9321Z" fill="white"/>
<path d="M77.7973 87.4491L78.1331 87.4873L78.0832 87.159L77.7738 87.272L77.7973 87.4491Z" fill="white"/>
<path d="M78.0297 87.9139L78.3491 87.8037L78.1627 87.5289L77.9322 87.7642L78.0297 87.9139Z" fill="white"/>
<path d="M78.3816 88.2814L78.662 88.0928L78.4112 87.8751L78.2489 88.1617L78.3816 88.2814Z" fill="white"/>
<path d="M78.9052 88.4434L79.0718 88.1494L78.7501 88.0668L78.7331 88.3957L78.9052 88.4434Z" fill="white"/>
<path d="M79.4296 88.3422L79.4095 88.0049L79.0947 88.1104L79.2592 88.3958L79.4296 88.3422Z" fill="white"/>
<path d="M79.8745 88.093L79.7394 87.7832L79.4801 87.9908L79.7329 88.202L79.8745 88.093Z" fill="white"/>
<path d="M80.1506 87.6664L79.9056 87.4336L79.7476 87.7257L80.0627 87.8218L80.1506 87.6664Z" fill="white"/>
<path d="M80.2654 87.1629L79.9463 87.0518L79.9227 87.383L80.2494 87.3408L80.2654 87.1629Z" fill="white"/>
<path d="M80.1454 86.6807L79.8088 86.7109L79.9239 87.0225L80.2041 86.8494L80.1454 86.6807Z" fill="white"/>
<path d="M79.855 86.2501L79.564 86.4219L79.8016 86.6539L79.9804 86.3773L79.855 86.2501Z" fill="white"/>
<path fill-rule="evenodd" clip-rule="evenodd" d="M79.8624 87.7873C80.1885 87.3262 80.079 86.6882 79.6179 86.3621C79.1569 86.0361 78.5188 86.1455 78.1928 86.6066C77.8667 87.0676 77.9762 87.7057 78.4372 88.0318C78.8983 88.3578 79.5364 88.2484 79.8624 87.7873ZM79.4507 87.5011C79.6164 87.2666 79.5608 86.9422 79.3264 86.7764C79.0919 86.6106 78.7675 86.6663 78.6017 86.9007C78.4359 87.1351 78.4916 87.4596 78.726 87.6254C78.9604 87.7912 79.2849 87.7355 79.4507 87.5011Z" fill="white"/>
<path d="M77.421 84.8306L77.2715 85.042L77.5104 85.1296L77.5486 84.8802L77.421 84.8306Z" fill="white"/>
<path d="M77.0532 84.7896L76.9952 85.042L77.2495 85.0322L77.19 84.787L77.0532 84.7896Z" fill="white"/>
<path d="M76.6811 84.8965L76.7139 85.1533L76.9491 85.0564L76.8086 84.8468L76.6811 84.8965Z" fill="white"/>
<path d="M76.3813 85.1733L76.5436 85.375L76.6933 85.1693L76.4639 85.0642L76.3813 85.1733Z" fill="white"/>
<path d="M76.2106 85.5338L76.4297 85.6719L76.5045 85.4287L76.2533 85.4038L76.2106 85.5338Z" fill="white"/>
<path d="M76.2012 85.9317L76.4585 85.9609L76.4203 85.7094L76.1833 85.796L76.2012 85.9317Z" fill="white"/>
<path d="M76.3839 86.2905L76.6287 86.2061L76.4858 85.9955L76.3092 86.1758L76.3839 86.2905Z" fill="white"/>
<path d="M76.6456 86.5722L76.8605 86.4277L76.6683 86.261L76.544 86.4806L76.6456 86.5722Z" fill="white"/>
<path d="M77.0457 86.6901L77.1733 86.4648L76.9269 86.4015L76.9138 86.6536L77.0457 86.6901Z" fill="white"/>
<path d="M77.4531 86.613L77.4377 86.3545L77.1965 86.4353L77.3225 86.654L77.4531 86.613Z" fill="white"/>
<path d="M77.7939 86.4229L77.6904 86.1855L77.4918 86.3446L77.6855 86.5064L77.7939 86.4229Z" fill="white"/>
<path d="M78.0039 86.0914L77.8162 85.9131L77.6951 86.1369L77.9365 86.2105L78.0039 86.0914Z" fill="white"/>
<path d="M78.0934 85.7082L77.8489 85.623L77.8308 85.8769L78.0811 85.8445L78.0934 85.7082Z" fill="white"/>
<path d="M77.9968 85.3352L77.7389 85.3584L77.827 85.5971L78.0417 85.4645L77.9968 85.3352Z" fill="white"/>
<path d="M77.7746 85.01L77.5516 85.1416L77.7337 85.3194L77.8707 85.1074L77.7746 85.01Z" fill="white"/>
<path fill-rule="evenodd" clip-rule="evenodd" d="M77.7718 86.1781C78.0216 85.8248 77.9378 85.336 77.5845 85.0862C77.2313 84.8364 76.7424 84.9202 76.4926 85.2735C76.2428 85.6267 76.3266 86.1156 76.6799 86.3654C77.0331 86.6152 77.522 86.5313 77.7718 86.1781ZM77.4653 85.957C77.5923 85.7774 77.5497 85.5288 77.37 85.4018C77.1904 85.2748 76.9418 85.3174 76.8148 85.497C76.6878 85.6767 76.7304 85.9252 76.9101 86.0523C77.0897 86.1793 77.3383 86.1366 77.4653 85.957Z" fill="white"/>
<path d="M78.3223 79.0553C78.2854 78.1382 78.9467 76.4824 79.671 75.1014" stroke="#FFC2A4" stroke-width="1.78505" stroke-linecap="round"/>
<path d="M71.4713 91.8626C72.043 91.1446 73.626 90.3241 75.077 89.7527" stroke="#FFC2A4" stroke-width="1.78505" stroke-linecap="round"/>
<path d="M74.2202 80.6751C73.3922 80.2791 72.2374 78.9207 71.355 77.6349" stroke="#FFC2A4" stroke-width="1.78505" stroke-linecap="round"/>
<path d="M84.6603 86.4425C85.5471 86.2057 87.3075 86.4884 88.8136 86.8927" stroke="#FFC2A4" stroke-width="1.78505" stroke-linecap="round"/>
<path d="M72.5055 83.6249C71.5931 83.7249 69.8957 83.1791 68.4681 82.5515" stroke="#FFC2A4" stroke-width="1.78505" stroke-linecap="round"/>
<path d="M85.0739 83.3556C85.7526 82.7378 87.446 82.1798 88.9695 81.8468" stroke="#FFC2A4" stroke-width="1.78505" stroke-linecap="round"/>
<path d="M72.9312 87.0886C72.1055 87.4894 70.3235 87.5459 68.768 87.4347" stroke="#FFC2A4" stroke-width="1.78505" stroke-linecap="round"/>
<path d="M82.4673 80.4887C82.8474 79.6533 84.1835 78.4727 85.4522 77.5658" stroke="#FFC2A4" stroke-width="1.78505" stroke-linecap="round"/>
<path d="M73.0649 50.2063C72.6898 49.5644 73.1309 48.9593 73.3984 48.737C74.9095 47.2537 78.0921 44.1038 78.734 43.3701C79.376 42.6365 79.9672 42.7101 80.1825 42.8386C80.5091 42.4913 81.1642 41.809 81.1725 41.8591C81.1809 41.9091 81.6137 42.3245 81.8291 42.526C81.6484 42.7171 81.2059 43.1742 80.8808 43.4743C81.0642 44.1496 80.6862 44.6172 80.4743 44.7665C78.8278 46.4339 75.4159 49.8729 74.9407 50.2897C74.5031 50.8837 73.5339 51.0088 73.0649 50.2063Z" fill="#23649A"/>
<path d="M83.806 34.5843C84.6779 34.2994 86.849 34.1049 88.558 35.6055C87.8703 34.824 86.4009 33.365 83.806 34.5843Z" fill="#23649A"/>
<path d="M83.2201 41.6138C83.9545 41.9765 85.8586 42.5128 87.6 41.7568C86.8732 42.1876 85.3513 42.9578 83.2201 41.6138Z" fill="#23649A"/>
<circle cx="85.5837" cy="38.0681" r="5.59243" stroke="#23649A" stroke-width="1.78505"/>
<rect x="137.452" y="33.3066" width="2.97842" height="2.379" transform="rotate(56.3598 137.452 33.3066)" fill="#30215A"/>
<rect x="144.224" y="115.454" width="4.53494" height="4.00162" rx="1.78505" transform="rotate(42.8614 144.224 115.454)" fill="#30215A"/>
<rect x="77.9729" y="103.212" width="3.81448" height="3.0468" rx="1.5234" transform="rotate(15.0588 77.9729 103.212)" fill="#30215A"/>
<path d="M203.634 86.0731C200.833 87.1528 198.48 85.7493 197.654 84.9126C199.052 87.7387 197.019 90.1835 196.767 90.6808C198.967 89.7968 201.513 91.1292 202.511 91.9059C201.447 88.3849 202.729 87.5273 203.634 86.0731Z" fill="#F27559"/>
<path d="M82.1848 59.2978C79.8001 60.2172 77.7969 59.0221 77.0934 58.3096C78.2838 60.7161 76.5526 62.7979 76.3375 63.2213C78.2114 62.4686 80.3791 63.6031 81.2287 64.2645C80.3231 61.2663 81.4148 60.5361 82.1848 59.2978Z" fill="#F27559"/>
<rect x="90.3346" y="74.9942" width="37.8225" height="34.0402" rx="7.14019" fill="#E6F4F1"/>
<path d="M90.3348 80.0078C90.3348 77.2388 92.5795 74.9941 95.3485 74.9941H123.144C125.913 74.9941 128.157 77.2388 128.157 80.0078H90.3348Z" fill="#D6E4FF"/>
<ellipse cx="92.2879" cy="77.4976" rx="0.652112" ry="0.659694" fill="white"/>
<ellipse cx="94.1089" cy="77.4976" rx="0.652112" ry="0.659694" fill="white"/>
<ellipse cx="95.9378" cy="77.4976" rx="0.652112" ry="0.659694" fill="white"/>
<path d="M117.508 93.4152C117.077 95.2972 116.03 96.9767 114.537 98.1817C113.045 99.3867 111.194 100.047 109.284 100.054C107.374 100.062 105.518 99.4175 104.016 98.2248C102.514 97.0321 101.453 95.3612 101.007 93.4828L109.25 91.4784L117.508 93.4152Z" fill="#F27559"/>
<path d="M109.51 82.376C110.763 82.376 112.001 82.6571 113.134 83.199C114.267 83.7409 115.267 84.5302 116.062 85.5101C116.857 86.4899 117.428 87.6359 117.733 88.8656C118.038 90.0953 118.069 91.3781 117.825 92.6216L109.51 90.952V82.376Z" fill="#51C0A6"/>
<path d="M100.893 92.3921C100.688 91.1753 100.745 89.9282 101.06 88.7358C101.375 87.5434 101.941 86.4339 102.72 85.4832C103.498 84.5324 104.469 83.7627 105.568 83.2267C106.667 82.6908 107.868 82.4011 109.088 82.3775L109.25 90.952L100.893 92.3921Z" fill="#86B2F3"/>
<rect x="98.1616" y="101.638" width="22.1718" height="1.05551" fill="#CED5E7"/>
<rect x="102.337" y="104.016" width="13.8248" height="1.05551" fill="#CED5E7"/>
<path d="M196.078 186.327L210.031 186.53L209.222 182.081H201.942C197.413 182.728 196.145 185.182 196.078 186.327Z" fill="#1D468A"/>
<path d="M207.718 88.2455L206.488 80.8696L214.148 80.5859L214.432 88.2455H207.718Z" fill="#F7B39D"/>
<path d="M222.571 88.8626C212.542 79.3182 197.497 88.8628 197.497 91.4909L200.732 114.139L200.935 123.441L223.38 123.845L224.998 97.962C224.593 90.4802 224.796 91.6934 222.571 88.8626Z" fill="#F99744"/>
<path d="M223.372 123.848L200.927 123.443L201.938 182.085H209.218L212.251 135.98L218.317 182.287L222.094 182.611L226.001 182.287L223.372 123.848Z" fill="#1D468A"/>
<path d="M185.362 118.588C184.351 119.329 182.207 120.933 181.722 121.419C181.115 122.025 179.7 122.632 179.498 122.632C179.296 122.632 177.273 123.441 179.498 121.823C179.983 121.5 180.239 121.284 180.306 121.217C179.7 121.554 178.365 122.268 177.88 122.43C177.273 122.632 175.655 122.834 177.475 121.621C178.259 121.098 178.688 120.826 178.906 120.696C177.979 121.119 176.362 121.823 176.06 121.823C175.656 121.823 173.836 122.43 175.858 121.014L177.475 120.003L175.252 120.408C174.443 120.475 173.31 120.408 175.252 119.599C177.193 118.79 177.948 118.318 178.083 118.183L178.891 117.577C179.026 117.509 179.174 117.294 178.689 116.97C178.083 116.566 177.071 115.959 178.285 115.757C179.255 115.757 180.442 115.892 180.913 115.959C181.453 116.094 182.733 116.283 183.542 115.959C184.351 115.636 185.092 117.577 185.362 118.588Z" fill="#F7B39D"/>
<path d="M203.961 92.9072C202.343 87.407 199.108 89.2674 197.692 90.885C196.236 93.3116 195.333 104.703 195.063 110.095L182.729 115.959L183.942 120.003C187.919 118.925 196.56 116.445 199.31 115.15C202.06 113.856 203.152 110.432 203.354 108.882C203.961 105.983 204.931 98.7308 203.961 92.9072Z" fill="#ED7D31"/>
<path d="M204.979 77.1357C204.817 75.8416 205.248 72.4175 205.585 70.8672C208.079 70.3954 213.552 69.4921 215.493 69.6539C217.92 69.8561 220.953 76.1247 212.864 80.9777C206.394 84.8602 204.911 80.0341 204.979 77.1357Z" fill="#F7B39D"/>
<path d="M209.626 65.6084C207.361 65.6084 205.447 66.5521 204.773 67.0239C202.045 68.9335 203.761 69.2482 204.773 69.4504C203.64 70.0975 203.088 70.7985 202.953 71.0681C201.335 73.6969 203.762 72.4836 205.379 72.6858C206.997 72.888 206.997 73.8991 206.795 74.3035C206.593 74.7079 206.593 74.9101 206.593 75.5168C206.593 76.1234 206.997 77.3367 207.604 76.9322C208.089 76.6087 208.48 76.5278 208.615 76.5278C210.232 76.5278 209.626 78.7521 209.424 79.7632C208.615 82.5942 212.052 83.2008 214.277 82.5942C217.108 80.9765 217.916 78.7521 219.13 75.1123C220.1 72.2005 219.13 70.3941 218.523 69.8548C217.984 69.383 216.824 68.3989 216.501 68.2371C215.49 67.6305 215.692 67.4283 214.681 66.8217C213.67 66.215 212.457 65.6084 209.626 65.6084Z" fill="#163561" stroke="#FF4B4B" stroke-width="0.0446262"/>
<path d="M206.679 81.7139C207.909 82.5649 211.143 83.9455 214.244 82.6595C212.448 83.6997 208.192 84.5507 206.679 81.7139Z" fill="#F8A9A9"/>
<path d="M91.8942 89.1785C91.1756 91.6037 89.948 92.5842 89.4241 92.7713L91.445 96.7008C92.1561 95.5032 93.713 92.9508 94.252 92.322C94.9256 91.5361 96.6098 90.8624 97.508 90.3011C98.4062 89.7397 98.8553 88.7292 97.508 89.066C96.4301 89.3355 96.5349 88.804 96.722 88.5046C96.9092 87.9433 97.508 86.4612 98.4062 85.0241C99.3044 83.5869 98.6307 83.9762 98.1816 84.3504L96.2729 86.2591C96.4975 85.9972 97.0364 85.1589 97.3957 83.9014C97.755 82.6439 97.0214 83.3774 96.6098 83.9014C96.2729 84.2382 95.3747 85.5855 94.8133 86.596C95.2625 85.608 95.5993 84.5377 95.7116 84.1261C95.9361 83.3402 95.3196 83.7461 94.9256 84.2384C94.4765 84.7998 93.9151 85.96 93.5783 86.7085C93.728 86.3342 94.0499 85.4734 94.1397 85.0243C94.252 84.4629 94.252 84.3506 93.8029 84.7997C92.9046 85.5857 92.7924 86.147 91.8942 89.1785Z" fill="#FFC7C7"/>
<path d="M52.0389 124.32L49.7933 182.367L57.0913 182.929L63.1542 137.457L66.1857 182.929H72.5855L73.1468 124.32H52.0389Z" fill="#0D264A"/>
<path d="M57.0875 181.915L49.9018 181.803H49.7896L48.8914 186.069H60.5681C61.0172 183.105 58.4349 182.065 57.0875 181.915Z" fill="#06152C"/>
<path d="M65.1798 186.06L66.078 181.794H72.9269C77.8671 182.513 78.5781 184.938 78.3162 186.06H65.1798Z" fill="#06152C"/>
<path d="M73.5912 101.978V91.8728L84.0329 98.1603L90.6572 90.75C91.3309 91.1617 93.015 92.2096 94.3623 93.1078C89.759 102.314 86.9521 104.56 86.503 104.897C86.0539 105.234 85.7171 105.458 84.482 105.346C79.9909 105.256 75.3502 103.063 73.5912 101.978Z" fill="#122D53"/>
<path d="M57.8708 89.0616L58.4322 85.5811L64.2706 85.9179L64.9443 88.7248L62.3619 92.3176L57.8708 89.0616Z" fill="#FFC7C7"/>
<path d="M58.731 88.8715C57.7828 89.1086 56.2264 89.6641 55.4031 89.9635L58.4345 126.341H67.978L66.9676 89.1776L64.4975 88.6162L62.2519 91.5354C61.3537 90.9366 59.2699 89.5003 58.731 88.8715Z" fill="#00A3FE"/>
<path d="M74.0552 92.0898C71.0911 90.2036 67.7219 89.2939 66.412 89.0693L65.7384 97.8269V100.297L66.5243 131.622L74.0468 132.633C74.0468 119.496 74.0552 92.988 74.0552 92.0898Z" fill="#163561"/>
<path d="M49.0092 93.3358C51.1649 91.5394 55.0721 90.0424 56.7562 89.5184L59.4509 98.8374L60.1245 131.622L50.3565 132.633L49.0092 93.3358Z" fill="#163561"/>
<path d="M64.7151 88.055C60.1343 88.5939 58.3154 86.3334 58.0908 85.248L64.7235 85.7985L64.7151 88.055Z" fill="#F3B1B1"/>
<path d="M64.7238 86.9344C59.1549 87.653 56.4902 84.8386 55.854 83.3416C53.7208 73.349 63.9379 70.8789 65.9589 73.5735C67.9799 76.2682 67.8593 80.0967 67.3062 81.882C66.7531 83.6673 67.0817 85.3626 64.7238 86.9344Z" fill="#FFC7C7"/>
<path d="M59.78 70.4298C56.7261 71.4178 54.9147 72.8625 54.3907 73.4613C53.1332 74.1798 52.8188 76.5302 52.8188 77.6155C53.0434 78.626 53.1557 81.5452 55.4012 84.1275C57.1104 86.0931 57.2725 84.6141 57.0854 83.6784C56.9731 83.2667 56.7036 82.0841 56.524 80.647C56.4117 78.8505 58.0958 79.2996 58.2081 80.647C58.3204 81.9943 58.8818 81.4329 59.1063 80.8715C59.286 80.4224 59.4057 79.0377 59.4432 78.4014C59.8923 74.8984 63.3728 76.1684 66.5166 76.605C70.5585 77.1664 69.4358 74.6963 67.9762 72.2262C66.8534 70.093 64.533 69.9807 63.3728 69.9807C62.8489 69.9433 61.3968 69.9807 59.78 70.4298Z" fill="#163561"/>
<path d="M54.9541 99.0598C55.4032 92.5927 51.3612 92.0985 49.0034 93.3337C47.5438 95.2427 45.7474 100.744 45.186 105.235C44.6246 109.726 44.4001 112.757 45.7474 116.35C46.8252 119.224 49.6396 124.284 50.9121 126.455L54.8418 123.648L51.3612 113.206C52.3492 109.434 54.1681 102.204 54.9541 99.0598Z" fill="#224373"/>
<path fill-rule="evenodd" clip-rule="evenodd" d="M58.8535 89.1016L61.6981 90.5174V92.0166L58.1005 89.3114L58.8535 89.1016Z" fill="#89C2D9"/>
<path fill-rule="evenodd" clip-rule="evenodd" d="M61.6989 90.512L61.2249 106.949L63.3415 109.219L65.405 106.952L62.9955 90.4287L61.6989 90.512Z" fill="#00243D"/>
<path fill-rule="evenodd" clip-rule="evenodd" d="M64.4852 88.9241C64.6518 88.9086 65.4583 89.04 65.4583 89.04L63.1262 91.264L63.0077 90.4311C63.0077 90.4311 64.3186 88.9423 64.4828 88.9263L64.4852 88.9241Z" fill="#89C2D9"/>
<defs>
<filter id="filter0_d_1848_7226" x="149.009" y="51.9038" width="17.3067" height="17.3067" filterUnits="userSpaceOnUse" color-interpolation-filters="sRGB">
<feFlood flood-opacity="0" result="BackgroundImageFix"/>
<feColorMatrix in="SourceAlpha" type="matrix" values="0 0 0 0 0 0 0 0 0 0 0 0 0 0 0 0 0 0 127 0" result="hardAlpha"/>
<feOffset dy="1.78505"/>
<feGaussianBlur stdDeviation="3.57009"/>
<feComposite in2="hardAlpha" operator="out"/>
<feColorMatrix type="matrix" values="0 0 0 0 0.201043 0 0 0 0 0.167438 0 0 0 0 0.5875 0 0 0 0.12 0"/>
<feBlend mode="normal" in2="BackgroundImageFix" result="effect1_dropShadow_1848_7226"/>
<feBlend mode="normal" in="SourceGraphic" in2="effect1_dropShadow_1848_7226" result="shape"/>
</filter>
<filter id="filter1_d_1848_7226" x="169.065" y="45.7837" width="17.3067" height="17.3067" filterUnits="userSpaceOnUse" color-interpolation-filters="sRGB">
<feFlood flood-opacity="0" result="BackgroundImageFix"/>
<feColorMatrix in="SourceAlpha" type="matrix" values="0 0 0 0 0 0 0 0 0 0 0 0 0 0 0 0 0 0 127 0" result="hardAlpha"/>
<feOffset dy="1.78505"/>
<feGaussianBlur stdDeviation="3.57009"/>
<feComposite in2="hardAlpha" operator="out"/>
<feColorMatrix type="matrix" values="0 0 0 0 0.201043 0 0 0 0 0.167438 0 0 0 0 0.5875 0 0 0 0.12 0"/>
<feBlend mode="normal" in2="BackgroundImageFix" result="effect1_dropShadow_1848_7226"/>
<feBlend mode="normal" in="SourceGraphic" in2="effect1_dropShadow_1848_7226" result="shape"/>
</filter>
<filter id="filter2_d_1848_7226" x="123.438" y="60.3507" width="9.4096" height="9.40954" filterUnits="userSpaceOnUse" color-interpolation-filters="sRGB">
<feFlood flood-opacity="0" result="BackgroundImageFix"/>
<feColorMatrix in="SourceAlpha" type="matrix" values="0 0 0 0 0 0 0 0 0 0 0 0 0 0 0 0 0 0 127 0" result="hardAlpha"/>
<feOffset dy="1.78505"/>
<feGaussianBlur stdDeviation="1.78505"/>
<feComposite in2="hardAlpha" operator="out"/>
<feColorMatrix type="matrix" values="0 0 0 0 0.443137 0 0 0 0 0.517647 0 0 0 0 0.819608 0 0 0 0.16 0"/>
<feBlend mode="normal" in2="BackgroundImageFix" result="effect1_dropShadow_1848_7226"/>
<feBlend mode="normal" in="SourceGraphic" in2="effect1_dropShadow_1848_7226" result="shape"/>
</filter>
<linearGradient id="paint0_linear_1848_7226" x1="130.12" y1="63.9521" x2="130.12" y2="71.5828" gradientUnits="userSpaceOnUse">
<stop stop-color="#50AF9A"/>
<stop offset="1" stop-color="#349B44"/>
</linearGradient>
<linearGradient id="paint1_linear_1848_7226" x1="122.632" y1="69.3359" x2="122.632" y2="76.2054" gradientUnits="userSpaceOnUse">
<stop stop-color="#50AF9A"/>
<stop offset="1" stop-color="#349B44"/>
</linearGradient>
<linearGradient id="paint2_linear_1848_7226" x1="129.88" y1="76.3374" x2="116.707" y2="73.5094" gradientUnits="userSpaceOnUse">
<stop stop-color="white"/>
<stop offset="1" stop-color="white"/>
</linearGradient>
<linearGradient id="paint3_linear_1848_7226" x1="147.532" y1="66.999" x2="147.532" y2="72.5072" gradientUnits="userSpaceOnUse">
<stop stop-color="#50AF9A"/>
<stop offset="1" stop-color="#349B44"/>
</linearGradient>
<linearGradient id="paint4_linear_1848_7226" x1="134.154" y1="63.2451" x2="134.154" y2="65.7436" gradientUnits="userSpaceOnUse">
<stop stop-color="#337F6D"/>
<stop offset="1" stop-color="#5FDBBD"/>
</linearGradient>
<linearGradient id="paint5_linear_1848_7226" x1="120.756" y1="71.5668" x2="121.189" y2="68.3688" gradientUnits="userSpaceOnUse">
<stop stop-color="white"/>
<stop offset="1" stop-color="#5B2B00"/>
</linearGradient>
<linearGradient id="paint6_linear_1848_7226" x1="119.713" y1="67.7153" x2="119.799" y2="67.0818" gradientUnits="userSpaceOnUse">
<stop stop-color="white"/>
<stop offset="1" stop-color="#5B2B00"/>
</linearGradient>
<linearGradient id="paint7_linear_1848_7226" x1="148.759" y1="69.0156" x2="148.759" y2="74.3731" gradientUnits="userSpaceOnUse">
<stop stop-color="#50AF9A"/>
<stop offset="1" stop-color="#349B44"/>
</linearGradient>
<linearGradient id="paint8_linear_1848_7226" x1="150.129" y1="74.5492" x2="143.574" y2="73.4769" gradientUnits="userSpaceOnUse">
<stop stop-color="white"/>
<stop offset="1" stop-color="white"/>
</linearGradient>
<linearGradient id="paint9_linear_1848_7226" x1="151.832" y1="72.8164" x2="151.597" y2="72.3006" gradientUnits="userSpaceOnUse">
<stop stop-color="white"/>
<stop offset="1" stop-color="#5B2B00"/>
</linearGradient>
<linearGradient id="paint10_linear_1848_7226" x1="152.163" y1="76.5222" x2="148.885" y2="76.3201" gradientUnits="userSpaceOnUse">
<stop stop-color="white"/>
<stop offset="1" stop-color="white"/>
</linearGradient>
<linearGradient id="paint11_linear_1848_7226" x1="135.217" y1="60.2099" x2="146.388" y2="72.1787" gradientUnits="userSpaceOnUse">
<stop offset="0.00540541" stop-color="#DDF25C"/>
<stop offset="0.2342" stop-color="#DDE767"/>
<stop offset="0.6581" stop-color="#6064CA"/>
<stop offset="0.9946" stop-color="#40A8AF"/>
</linearGradient>
<linearGradient id="paint12_linear_1848_7226" x1="139.813" y1="62.4116" x2="140.109" y2="62.6767" gradientUnits="userSpaceOnUse">
<stop offset="0.3659" stop-color="white"/>
<stop offset="0.5772" stop-color="#D3A1B9"/>
<stop offset="0.7848" stop-color="#AB4A78"/>
<stop offset="0.9297" stop-color="#921550"/>
<stop offset="1" stop-color="#880041"/>
</linearGradient>
<linearGradient id="paint13_linear_1848_7226" x1="157.765" y1="67.1202" x2="145.523" y2="70.6415" gradientUnits="userSpaceOnUse">
<stop stop-color="white"/>
<stop offset="1" stop-color="#5B2B00"/>
</linearGradient>
<linearGradient id="paint14_linear_1848_7226" x1="142.781" y1="65.294" x2="142.691" y2="65.1008" gradientUnits="userSpaceOnUse">
<stop stop-color="white"/>
<stop offset="1" stop-color="#5B2B00"/>
</linearGradient>
<linearGradient id="paint15_linear_1848_7226" x1="145.633" y1="63.9209" x2="145.633" y2="68.2519" gradientUnits="userSpaceOnUse">
<stop stop-color="#337F6D"/>
<stop offset="1" stop-color="#5FDBBD"/>
</linearGradient>
<linearGradient id="paint16_linear_1848_7226" x1="151.743" y1="65.6094" x2="151.552" y2="65.1974" gradientUnits="userSpaceOnUse">
<stop stop-color="white"/>
<stop offset="1" stop-color="#5B2B00"/>
</linearGradient>
<linearGradient id="paint17_linear_1848_7226" x1="149.592" y1="66.1789" x2="142.271" y2="61.9396" gradientUnits="userSpaceOnUse">
<stop stop-color="white"/>
<stop offset="1" stop-color="white"/>
</linearGradient>
<linearGradient id="paint18_linear_1848_7226" x1="135.502" y1="65.7155" x2="142.756" y2="73.4872" gradientUnits="userSpaceOnUse">
<stop offset="0.00540541" stop-color="#DDF25C"/>
<stop offset="0.2342" stop-color="#DDE767"/>
<stop offset="0.6581" stop-color="#6064CA"/>
<stop offset="0.9946" stop-color="#40A8AF"/>
</linearGradient>
<linearGradient id="paint19_linear_1848_7226" x1="138.487" y1="67.1521" x2="138.681" y2="67.327" gradientUnits="userSpaceOnUse">
<stop offset="0.3659" stop-color="white"/>
<stop offset="0.5772" stop-color="#D3A1B9"/>
<stop offset="0.7848" stop-color="#AB4A78"/>
<stop offset="0.9297" stop-color="#921550"/>
<stop offset="1" stop-color="#880041"/>
</linearGradient>
<linearGradient id="paint20_linear_1848_7226" x1="136.413" y1="69.0635" x2="136.413" y2="78.2466" gradientUnits="userSpaceOnUse">
<stop stop-color="#50AF9A"/>
<stop offset="1" stop-color="#349B44"/>
</linearGradient>
<linearGradient id="paint21_linear_1848_7226" x1="138.415" y1="81.1308" x2="130.218" y2="80.4151" gradientUnits="userSpaceOnUse">
<stop stop-color="white"/>
<stop offset="1" stop-color="white"/>
</linearGradient>
<linearGradient id="paint22_linear_1848_7226" x1="139.589" y1="76.9009" x2="139.795" y2="76.2067" gradientUnits="userSpaceOnUse">
<stop stop-color="white"/>
<stop offset="1" stop-color="#5B2B00"/>
</linearGradient>
<linearGradient id="paint23_linear_1848_7226" x1="143.187" y1="81.5826" x2="136.424" y2="80.921" gradientUnits="userSpaceOnUse">
<stop stop-color="white"/>
<stop offset="1" stop-color="white"/>
</linearGradient>
<linearGradient id="paint24_linear_1848_7226" x1="117.227" y1="65.9883" x2="117.227" y2="72.4881" gradientUnits="userSpaceOnUse">
<stop stop-color="#337F6D"/>
<stop offset="1" stop-color="#5FDBBD"/>
</linearGradient>
<linearGradient id="paint25_linear_1848_7226" x1="110.806" y1="71.2901" x2="110.886" y2="70.7" gradientUnits="userSpaceOnUse">
<stop stop-color="white"/>
<stop offset="1" stop-color="#5B2B00"/>
</linearGradient>
<linearGradient id="paint26_linear_1848_7226" x1="119.351" y1="73.9921" x2="109.679" y2="72.4584" gradientUnits="userSpaceOnUse">
<stop stop-color="white"/>
<stop offset="1" stop-color="white"/>
</linearGradient>
<linearGradient id="paint27_linear_1848_7226" x1="141.005" y1="93.1523" x2="141.005" y2="104.121" gradientUnits="userSpaceOnUse">
<stop stop-color="#00A3FE"/>
<stop offset="1" stop-color="#0047FE"/>
</linearGradient>
<linearGradient id="paint28_linear_1848_7226" x1="171.639" y1="86.3418" x2="171.639" y2="104.118" gradientUnits="userSpaceOnUse">
<stop stop-color="#00A3FE"/>
<stop offset="1" stop-color="#0047FE"/>
</linearGradient>
<linearGradient id="paint29_linear_1848_7226" x1="151.216" y1="88.6084" x2="151.216" y2="104.116" gradientUnits="userSpaceOnUse">
<stop stop-color="#00A3FE"/>
<stop offset="1" stop-color="#0047FE"/>
</linearGradient>
<linearGradient id="paint30_linear_1848_7226" x1="181.85" y1="93.1523" x2="181.85" y2="104.121" gradientUnits="userSpaceOnUse">
<stop stop-color="#00A3FE"/>
<stop offset="1" stop-color="#0047FE"/>
</linearGradient>
<linearGradient id="paint31_linear_1848_7226" x1="161.431" y1="88.6084" x2="161.431" y2="104.116" gradientUnits="userSpaceOnUse">
<stop stop-color="#00A3FE"/>
<stop offset="1" stop-color="#0047FE"/>
</linearGradient>
<linearGradient id="paint32_linear_1848_7226" x1="207.532" y1="22.6308" x2="204.133" y2="38.6391" gradientUnits="userSpaceOnUse">
<stop stop-color="#00A3FE"/>
<stop offset="1" stop-color="#0047FE"/>
</linearGradient>
<linearGradient id="paint33_linear_1848_7226" x1="81.9526" y1="89.8584" x2="83.2677" y2="91.9003" gradientUnits="userSpaceOnUse">
<stop stop-color="#50AF9A"/>
<stop offset="1" stop-color="#349B44"/>
</linearGradient>
<linearGradient id="paint34_linear_1848_7226" x1="76.7486" y1="81.8081" x2="81.6424" y2="89.4065" gradientUnits="userSpaceOnUse">
<stop stop-color="#FBE0B3"/>
<stop offset="1" stop-color="#FFCB6A"/>
</linearGradient>
</defs>
</svg>
